<svg xmlns="http://www.w3.org/2000/svg" width="30.3" height="31.433" viewBox="0 0 30.3 31.433">
  <path id="advice" d="M64.619,42.587a.432.432,0,1,1-.432.432A.433.433,0,0,1,64.619,42.587Zm0,1.865a1.433,1.433,0,1,0-1.433-1.433A1.435,1.435,0,0,0,64.619,44.452Zm-4.363-1.865a.432.432,0,1,1-.432.432A.432.432,0,0,1,60.256,42.587Zm0,1.865a1.433,1.433,0,1,0-1.433-1.433A1.435,1.435,0,0,0,60.256,44.452Zm-4.364-1.865a.432.432,0,1,1-.432.432A.432.432,0,0,1,55.892,42.587Zm0,1.865a1.433,1.433,0,1,0-1.433-1.433A1.435,1.435,0,0,0,55.892,44.452Zm-3.921-4.9v6.928a2.6,2.6,0,0,0,2.513,2.581.5.5,0,0,1,.488.5v3.078L58.4,49.212a.5.5,0,0,1,.354-.146h7.2a2.585,2.585,0,0,0,2.582-2.582V39.555a2.585,2.585,0,0,0-2.582-2.582H54.553A2.585,2.585,0,0,0,51.971,39.555Zm2,10.463v3.834a.5.5,0,0,0,.855.354l4.139-4.139h6.994a3.587,3.587,0,0,0,3.583-3.583V39.555a3.587,3.587,0,0,0-3.583-3.583H54.553a3.587,3.587,0,0,0-3.583,3.583v6.928A3.611,3.611,0,0,0,53.971,50.018ZM72.1,58.7a.721.721,0,0,1-.058.043L61.3,65.748a.6.6,0,0,1-.514.079l-6.641-1.858a1.587,1.587,0,0,0-.868,0l-2.458.67V57.617l3.553-.984,6.37,1.707a1.486,1.486,0,1,1-.77,2.871l-6.5-1.742a.5.5,0,1,0-.259.967l6.5,1.742a2.49,2.49,0,0,0,2.97-1.523l8.908-4a.585.585,0,0,1,.4-.041C73.019,56.843,73,57.958,72.1,58.7ZM49.814,65.426a.579.579,0,0,1-.578.578H45.46a.579.579,0,0,1-.578-.578V57.162a.579.579,0,0,1,.578-.578h3.775a.579.579,0,0,1,.578.578Zm23.9-8.385A1.92,1.92,0,0,0,72.2,55.634a1.577,1.577,0,0,0-1.025.1l-8.353,3.755A2.493,2.493,0,0,0,61,57.373l-6.5-1.742a.5.5,0,0,0-.263,0l-3.518.974a1.581,1.581,0,0,0-1.478-1.024H45.46a1.581,1.581,0,0,0-1.579,1.579v8.265a1.581,1.581,0,0,0,1.579,1.579h3.775a1.583,1.583,0,0,0,1.559-1.326l2.741-.747a.583.583,0,0,1,.335,0l6.641,1.858a1.593,1.593,0,0,0,1.33-.2L72.59,59.581a1.546,1.546,0,0,0,.151-.111A2.479,2.479,0,0,0,73.715,57.041Z" transform="translate(-43.681 -35.772)" fill="#6467e4" stroke="#6467e4" stroke-width="0.4" fill-rule="evenodd"/>
</svg>
