<svg id="alert" xmlns="http://www.w3.org/2000/svg" width="30.446" height="31.206" viewBox="0 0 30.446 31.206">
  <path id="Path_86629" data-name="Path 86629" d="M83.856,138.346H82.028v-9.2a9.142,9.142,0,0,0-18.285,0v9.2H61.914a.914.914,0,0,0-.914.914v3.718a.914.914,0,0,0,.914.914H83.856a.914.914,0,0,0,.914-.914V139.26A.914.914,0,0,0,83.856,138.346Zm-18.285-9.2a7.314,7.314,0,0,1,14.628,0v9.2H65.571Zm17.371,12.921H62.828v-1.889H82.942Z" transform="translate(-57.662 -112.686)" fill="#6467e4"/>
  <path id="Path_86630" data-name="Path 86630" d="M240.914,5.485a.914.914,0,0,0,.914-.914V.914a.914.914,0,0,0-1.828,0V4.571A.914.914,0,0,0,240.914,5.485Z" transform="translate(-225.752)" fill="#6467e4"/>
  <path id="Path_86631" data-name="Path 86631" d="M106.832,41.277a.914.914,0,0,0,1.583-.914L106.587,37.2A.914.914,0,0,0,105,38.11Z" transform="translate(-98.869 -34.5)" fill="#6467e4"/>
  <path id="Path_86632" data-name="Path 86632" d="M11.11,139.313a.914.914,0,0,0-.335-1.249l-3.167-1.828a.914.914,0,1,0-.914,1.583l3.167,1.828A.914.914,0,0,0,11.11,139.313Z" transform="translate(-6.237 -127.817)" fill="#6467e4"/>
  <path id="Path_86633" data-name="Path 86633" d="M347.571,41.611a.914.914,0,0,0,1.249-.335l1.829-3.167a.914.914,0,0,0-1.583-.914l-1.829,3.167A.914.914,0,0,0,347.571,41.611Z" transform="translate(-326.337 -34.499)" fill="#6467e4"/>
  <path id="Path_86634" data-name="Path 86634" d="M428.668,136.571a.914.914,0,0,0-1.249-.335l-3.167,1.828a.914.914,0,1,0,.914,1.583l3.167-1.828A.914.914,0,0,0,428.668,136.571Z" transform="translate(-398.345 -127.818)" fill="#6467e4"/>
</svg>
