<svg xmlns="http://www.w3.org/2000/svg" width="29.413" height="29.413" viewBox="0 0 29.413 29.413">
  <path id="Path_85030" data-name="Path 85030" d="M5.052,11.7c-1.04,0-2.08,0-3.12,0A1.733,1.733,0,0,1,0,10.02,1.768,1.768,0,0,1,1.947,8.291c2.05-.009,4.1,0,6.15,0,.856,0,.856,0,.856-.8,0-1.938-.007-3.876.006-5.815A1.731,1.731,0,0,1,10.511.021a1.888,1.888,0,0,1,2,1.062,1.944,1.944,0,0,1,.129.779q-.005,2.929,0,5.857c0,.556.012.568.6.568,2.156,0,4.311-.011,6.467.006a1.705,1.705,0,1,1,.113,3.4c-2.185.009-4.371,0-6.556.006-.623,0-.627,0-.627.589,0,2.008.005,4.016-.005,6.024a1.711,1.711,0,0,1-1.576,1.667,1.805,1.805,0,0,1-2.049-1.271,2.308,2.308,0,0,1-.052-.58q-.005-2.929,0-5.857c0-.561-.011-.571-.6-.571q-1.65,0-3.3,0" transform="translate(14.136) rotate(45)" fill="#959393"/>
</svg>
