<svg xmlns="http://www.w3.org/2000/svg" width="10.173" height="10.173" viewBox="0 0 10.173 10.173">
  <g id="download" transform="translate(-18.75 -18.75)">
    <path id="Path_86637" data-name="Path 86637" d="M39.749,19a.447.447,0,0,0-.447.447v5.1l-1.71-1.71a.447.447,0,1,0-.632.632l2.473,2.473a.447.447,0,0,0,.632,0l2.473-2.473a.447.447,0,0,0-.632-.632l-1.71,1.71v-5.1A.447.447,0,0,0,39.75,19Z" transform="translate(-15.913)" fill="#6567dc" stroke="#6567dd" stroke-width="0.5"/>
    <path id="Path_86638" data-name="Path 86638" d="M19.447,74a.447.447,0,0,0-.447.447v1.473a1.843,1.843,0,0,0,1.841,1.841h5.991a1.843,1.843,0,0,0,1.841-1.841V74.452a.447.447,0,0,0-.894,0v1.473a.948.948,0,0,1-.947.947H20.841a.948.948,0,0,1-.947-.947V74.452A.447.447,0,0,0,19.447,74Z" transform="translate(0 -49.093)" fill="#6567dc" stroke="#6567dd" stroke-width="0.5"/>
  </g>
</svg>
