<svg id="news" xmlns="http://www.w3.org/2000/svg" xmlns:xlink="http://www.w3.org/1999/xlink" width="33.662" height="33.662" viewBox="0 0 33.662 33.662">
  <defs>
    <clipPath id="clip-path">
      <path id="path723" d="M0-682.665H33.662V-649H0Z" transform="translate(0 682.665)" fill="#6467e4"/>
    </clipPath>
  </defs>
  <g id="g717" transform="translate(0 0)">
    <g id="g719">
      <g id="g721" clip-path="url(#clip-path)">
        <g id="g727" transform="translate(0.493 0.493)">
          <path id="path729" d="M-629.989-314.995a16.338,16.338,0,0,1-16.338,16.338,16.338,16.338,0,0,1-16.338-16.338,16.338,16.338,0,0,1,16.338-16.338A16.338,16.338,0,0,1-629.989-314.995Z" transform="translate(662.665 331.333)" fill="none" stroke="#6467e4" stroke-linecap="round" stroke-linejoin="round" stroke-width="1.5"/>
        </g>
        <g id="g731" transform="translate(4.414 24.736)">
          <path id="path733" d="M0-48.927a31.374,31.374,0,0,1,12.417-2.538,31.373,31.373,0,0,1,12.422,2.54" transform="translate(0 51.465)" fill="none" stroke="#6467e4" stroke-linecap="round" stroke-linejoin="round" stroke-width="1.5"/>
        </g>
        <g id="g735" transform="translate(29.48 16.831)">
          <path id="path737" d="M0,0H3.689" fill="none" stroke="#6467e4" stroke-linecap="round" stroke-linejoin="round" stroke-width="1.5"/>
        </g>
        <g id="g739" transform="translate(0.493 16.831)">
          <path id="path741" d="M0,0H3.689" fill="none" stroke="#6467e4" stroke-linecap="round" stroke-linejoin="round" stroke-width="1.5"/>
        </g>
        <g id="g743" transform="translate(16.831 22.101)">
          <path id="path745" d="M0,0V11.068" transform="translate(0 0)" fill="none" stroke="#6467e4" stroke-linecap="round" stroke-linejoin="round" stroke-width="1.5"/>
        </g>
        <g id="g747" transform="translate(16.831 0.493)">
          <path id="path749" d="M0,0V11.068" fill="none" stroke="#6467e4" stroke-linecap="round" stroke-linejoin="round" stroke-width="1.5"/>
        </g>
        <g id="g751" transform="translate(4.414 6.386)">
          <path id="path753" d="M-478.893-.044A31.374,31.374,0,0,1-491.31,2.493a31.373,31.373,0,0,1-12.422-2.54" transform="translate(503.732 0.047)" fill="none" stroke="#6467e4" stroke-linecap="round" stroke-linejoin="round" stroke-width="1.5"/>
        </g>
        <g id="g755" transform="translate(8.847 22.101)">
          <path id="path757" d="M-24.106-88.018a24.129,24.129,0,0,1-1.25-4.565" transform="translate(25.356 92.584)" fill="none" stroke="#6467e4" stroke-linecap="round" stroke-linejoin="round" stroke-width="1.5"/>
        </g>
        <g id="g759" transform="translate(11.035 22.101)">
          <path id="path761" d="M-265.683,0c-1.132,6.437-4.279,11.068-7.984,11.068-2.245,0-4.285-1.7-5.8-4.471" transform="translate(279.463)" fill="none" stroke="#6467e4" stroke-linecap="round" stroke-linejoin="round" stroke-width="1.5"/>
        </g>
        <g id="g763" transform="translate(23.558 6.979)">
          <path id="path765" d="M0,0A24.116,24.116,0,0,1,1.257,4.582" fill="none" stroke="#6467e4" stroke-linecap="round" stroke-linejoin="round" stroke-width="1.5"/>
        </g>
        <g id="g767" transform="translate(8.847 0.493)">
          <path id="path769" d="M0-213.381c1.132-6.437,4.279-11.068,7.984-11.068,2.246,0,4.288,1.7,5.8,4.476" transform="translate(0 224.449)" fill="none" stroke="#6467e4" stroke-linecap="round" stroke-linejoin="round" stroke-width="1.5"/>
        </g>
        <g id="g771" transform="translate(4.182 11.561)">
          <path id="path773" d="M-456.594-203.223h-22.067a1.615,1.615,0,0,1-1.615-1.615v-7.31a1.615,1.615,0,0,1,1.615-1.615h22.067a1.615,1.615,0,0,1,1.615,1.615v7.31A1.615,1.615,0,0,1-456.594-203.223Z" transform="translate(480.276 213.763)" fill="none" stroke="#6467e4" stroke-linecap="round" stroke-linejoin="round" stroke-width="1.5"/>
        </g>
        <g id="g775" transform="translate(12.384 14.723)">
          <path id="path777" d="M-60.967-81.289h-3.162v-4.216h3.162" transform="translate(64.129 85.505)" fill="none" stroke="#6467e4" stroke-linecap="round" stroke-linejoin="round" stroke-width="1.5"/>
        </g>
        <g id="g779" transform="translate(12.516 16.831)">
          <path id="path781" d="M-50.806,0h-2.635" transform="translate(53.441)" fill="none" stroke="#6467e4" stroke-linecap="round" stroke-linejoin="round" stroke-width="1.5"/>
        </g>
        <g id="g783" transform="translate(7.246 14.723)">
          <path id="path785" d="M0-81.289v-4.216l3.162,4.216v-4.216" transform="translate(0 85.505)" fill="none" stroke="#6467e4" stroke-linecap="round" stroke-linejoin="round" stroke-width="1.5"/>
        </g>
        <g id="g787" transform="translate(17.243 14.723)">
          <path id="path789" d="M-91.45,0l-1.186,4.216L-93.821,0l-1.186,4.216L-96.193,0" transform="translate(96.193)" fill="none" stroke="#6467e4" stroke-linecap="round" stroke-linejoin="round" stroke-width="1.5"/>
        </g>
        <g id="g791" transform="translate(23.584 14.723)">
          <path id="path793" d="M0-63.507c0,.509.708.922,1.581.922S3.162-63,3.162-63.507c0-.659-.632-.922-1.581-1.186S0-65.22,0-65.879c0-.509.708-.922,1.581-.922s1.581.413,1.581.922" transform="translate(0 66.801)" fill="none" stroke="#6467e4" stroke-linecap="round" stroke-linejoin="round" stroke-width="1.5"/>
        </g>
      </g>
    </g>
  </g>
</svg>
