<svg xmlns="http://www.w3.org/2000/svg" width="465.823" height="311.747" viewBox="0 0 465.823 311.747">
  <g id="Group_167665" data-name="Group 167665" transform="translate(-798.177 -250.717)">
    <path id="Path_86723" data-name="Path 86723" d="M462.207,236.426H413.229A191.6,191.6,0,0,0,397.92,104.16h34.733a3.617,3.617,0,1,0,0-7.233h-38.63a190.89,190.89,0,0,0-290.3-51.046H44.95a3.617,3.617,0,1,0,0,7.233H95.744Q89.659,58.951,84.1,65.307H3.617a3.617,3.617,0,1,0,0,7.233H78.086a191.109,191.109,0,0,0-27.533,189.1H41.023a3.617,3.617,0,0,0,0,7.233h12.6q1.973,4.4,4.16,8.68H14.983a3.617,3.617,0,1,0,0,7.233H61.671a191.1,191.1,0,0,0,14.96,22.527H379.065A190.62,190.62,0,0,0,404.39,263.5h35.5a3.617,3.617,0,0,0,0-7.233H407.2q2.264-6.206,4.105-12.607h50.9a3.617,3.617,0,1,0,0-7.233" transform="translate(798.177 250.716)" fill="#fff"/>
    <path id="Path_86724" data-name="Path 86724" d="M1401.88,1475.344h-23.121a3.023,3.023,0,0,1,3.022-3.023h17.076a3.023,3.023,0,0,1,3.023,3.023" transform="translate(-295.641 -917.327)" fill="#f2f2f2"/>
    <path id="Path_86725" data-name="Path 86725" d="M1417.428,1039.682h-12.167l3.954-112.7,2.657,1.766Z" transform="translate(-316.666 -484.688)" fill="#f2f2f2"/>
    <path id="Path_86726" data-name="Path 86726" d="M1393.556,1475.344h-23.121a3.023,3.023,0,0,1,3.022-3.023h17.076a3.023,3.023,0,0,1,3.023,3.023" transform="translate(-289.037 -917.327)" fill="#f2f2f2"/>
    <path id="Path_86727" data-name="Path 86727" d="M1426.374,923.6l58.178,33.589-.636-3.307a2.731,2.731,0,0,0-1.009-1.643L1444.9,922.814a2.729,2.729,0,0,0-2.452-.457l-7.625,2.279a2.729,2.729,0,0,1-2.146-.252l-5.068-2.926Z" transform="translate(-333.416 -480.309)" fill="#f2f2f2"/>
    <path id="Path_86728" data-name="Path 86728" d="M1197.071,921.458l-58.178,33.589,3.176,1.1a2.745,2.745,0,0,0,1.938-.053l44.472-18.2a2.743,2.743,0,0,0,1.63-1.905l1.836-7.729a2.742,2.742,0,0,1,1.3-1.742l5.062-2.923Z" transform="translate(-105.347 -480.309)" fill="#f2f2f2"/>
    <path id="Path_86729" data-name="Path 86729" d="M1394.087,663.578V596.4l-2.544,2.2a2.737,2.737,0,0,0-.92,1.7l-6.475,47.62a2.736,2.736,0,0,0,.833,2.358l5.78,5.459a2.736,2.736,0,0,1,.858,1.99v5.848Z" transform="translate(-299.896 -222.429)" fill="#f2f2f2"/>
    <path id="Path_86730" data-name="Path 86730" d="M1410.524,1039.682h-11.167l3.954-112.7h3.258Z" transform="translate(-311.982 -484.688)" fill="#f2f2f2"/>
    <path id="Path_86731" data-name="Path 86731" d="M1418.256,916a2.86,2.86,0,1,1-2.86-2.86,2.86,2.86,0,0,1,2.86,2.86" transform="translate(-322.437 -473.71)" fill="#f2f2f2"/>
    <path id="Path_86732" data-name="Path 86732" d="M1418.029,916.154a2.608,2.608,0,1,1-2.608-2.608,2.608,2.608,0,0,1,2.608,2.608" transform="translate(-322.657 -474.031)" fill="#f2f2f2"/>
    <path id="Path_86733" data-name="Path 86733" d="M1139.925,958.991l55.578-32.974-.05-.039-56.56,32.655Z" transform="translate(-105.347 -483.895)" fill="#f2f2f2"/>
    <rect id="Rectangle_149056" data-name="Rectangle 149056" width="11.141" height="0.732" transform="translate(1087.401 554.262)" fill="#f2f2f2"/>
    <path id="Path_86734" data-name="Path 86734" d="M1428.353,597.115l.765,65.076.058-.024V596.4Z" transform="translate(-334.986 -222.428)" fill="#f2f2f2"/>
    <path id="Path_86735" data-name="Path 86735" d="M1490.558,967.665l-56.345-31.645-.008.062,56.56,32.655Z" transform="translate(-339.627 -491.861)" fill="#f2f2f2"/>
    <path id="Path_86736" data-name="Path 86736" d="M1716.1,1468.371h-37.016a4.839,4.839,0,0,1,4.839-4.839h27.338a4.839,4.839,0,0,1,4.839,4.839" transform="translate(-533.897 -910.354)" fill="#ececec"/>
    <path id="Path_86737" data-name="Path 86737" d="M1740.99,770.889h-19.479l6.331-180.435,4.254,2.828Z" transform="translate(-567.558 -217.711)" fill="#ececec"/>
    <path id="Path_86738" data-name="Path 86738" d="M1702.772,1468.371h-37.016a4.839,4.839,0,0,1,4.839-4.839h27.338a4.839,4.839,0,0,1,4.839,4.839" transform="translate(-523.326 -910.354)" fill="#f2f2f2"/>
    <path id="Path_86739" data-name="Path 86739" d="M1755.312,585.036l93.141,53.775-1.134-5.9a2.732,2.732,0,0,0-1.01-1.644l-62-48a2.732,2.732,0,0,0-2.454-.457l-13.69,4.091a2.731,2.731,0,0,1-2.148-.252l-8.724-5.037Z" transform="translate(-594.373 -210.698)" fill="#f2f2f2"/>
    <path id="Path_86740" data-name="Path 86740" d="M1388.2,581.614l-93.141,53.775,5.677,1.968a2.735,2.735,0,0,0,1.932-.053l73.866-30.23,3.9-16.411,9.744-5.626Z" transform="translate(-229.242 -210.698)" fill="#f2f2f2"/>
    <path id="Path_86741" data-name="Path 86741" d="M1703.243,168.755V61.2l-4.542,3.932a2.738,2.738,0,0,0-.921,1.7l-10.563,77.691a2.738,2.738,0,0,0,.833,2.359l10.383,9.807a2.737,2.737,0,0,1,.858,1.99v10.071Z" transform="translate(-540.332 202.161)" fill="#f2f2f2"/>
    <path id="Path_86742" data-name="Path 86742" d="M1729.937,770.889h-17.878l6.331-180.435h5.216Z" transform="translate(-560.059 -217.711)" fill="#f2f2f2"/>
    <path id="Path_86743" data-name="Path 86743" d="M1742.315,572.878a4.578,4.578,0,1,1-4.578-4.578,4.579,4.579,0,0,1,4.578,4.578" transform="translate(-576.798 -200.136)" fill="#ececec"/>
    <path id="Path_86744" data-name="Path 86744" d="M1741.952,573.123a4.175,4.175,0,1,1-4.175-4.175,4.175,4.175,0,0,1,4.175,4.175" transform="translate(-577.15 -200.649)" fill="#f2f2f2"/>
    <path id="Path_86745" data-name="Path 86745" d="M1296.714,641.7l88.979-52.79-.08-.062-90.551,52.279Z" transform="translate(-229.241 -216.44)" fill="#ececec"/>
    <rect id="Rectangle_149057" data-name="Rectangle 149057" width="17.837" height="1.173" transform="translate(1152.041 552.005)" fill="#ececec"/>
    <path id="Path_86746" data-name="Path 86746" d="M1758.481,62.35l1.224,104.185.093-.039V61.2Z" transform="translate(-596.888 202.161)" fill="#ececec"/>
    <path id="Path_86747" data-name="Path 86747" d="M1858.068,655.591l-90.208-50.663-.013.1,90.551,52.279Z" transform="translate(-604.318 -229.193)" fill="#ececec"/>
    <path id="Path_86748" data-name="Path 86748" d="M340.45,706.372h0a21.734,21.734,0,0,1-21.67-21.67V634.82a21.67,21.67,0,0,1,43.34,0V684.7a21.734,21.734,0,0,1-21.67,21.67" transform="translate(545.277 -235.717)" fill="#f2f2f2"/>
    <path id="Path_86749" data-name="Path 86749" d="M420.28,922.352h-2.365V776.321a1.182,1.182,0,0,1,2.365,0Z" transform="translate(466.63 -364.229)" fill="#e4e4e4"/>
    <path id="Path_86750" data-name="Path 86750" d="M395.652,830.649l-6.574-11.386a1.182,1.182,0,1,0-2.048,1.182l6.574,11.386Z" transform="translate(491.258 -398.764)" fill="#e4e4e4"/>
    <path id="Path_86751" data-name="Path 86751" d="M419.964,892.01l6.574-11.386a1.182,1.182,0,1,0-2.048-1.182l-6.574,11.387Z" transform="translate(466.629 -446.506)" fill="#e4e4e4"/>
    <path id="Path_86752" data-name="Path 86752" d="M585.767,494.952h0a27.6,27.6,0,0,1-27.518-27.518V404.091a27.518,27.518,0,0,1,55.036,0v63.343a27.6,27.6,0,0,1-27.518,27.518" transform="translate(355.298 -48.032)" fill="#f2f2f2"/>
    <path id="Path_86753" data-name="Path 86753" d="M687.139,769.215h-3V583.776a1.5,1.5,0,1,1,3,0Z" transform="translate(255.427 -211.223)" fill="#e4e4e4"/>
    <path id="Path_86754" data-name="Path 86754" d="M655.864,652.766l-8.348-14.459a1.5,1.5,0,1,0-2.6,1.5l8.348,14.459Z" transform="translate(286.702 -255.079)" fill="#e4e4e4"/>
    <path id="Path_86755" data-name="Path 86755" d="M686.736,730.687l8.348-14.459a1.5,1.5,0,0,0-2.6-1.5l-8.348,14.459Z" transform="translate(255.428 -315.705)" fill="#e4e4e4"/>
    <path id="Path_86756" data-name="Path 86756" d="M389.243,1394.007c1.263-1.187,1.84-2.542,1.342-3.5-.616-1.181-2.679-1.361-4.88-.53q.169-.43.312-.886c1.173-3.747.5-7.292-1.5-7.918-1.949-.61-4.442,1.778-5.654,5.369-1-4.115-3.579-7.015-5.788-6.5-2.079.489-3.1,3.837-2.429,7.675-3.047-1.345-5.986-1.238-6.923.384-.97,1.68.541,4.406,3.418,6.393a3.171,3.171,0,0,0-2.431,2.342c-.157,1.288.947,2.558,2.7,3.343a1.246,1.246,0,0,0-.066.745c.183.777,1.167,1.256,2.454,1.307v0h16.461v-.014a.724.724,0,0,0,.634-.39.574.574,0,0,0-.053-.468,1.875,1.875,0,0,0,1.711-.986,1.587,1.587,0,0,0-.3-1.447c2.222-.149,3.93-1.123,3.984-2.376.048-1.1-1.2-2.1-3-2.555" transform="translate(509.852 -844.077)" fill="#e4e4e4"/>
    <path id="Path_86757" data-name="Path 86757" d="M471.691,1315.42c2.323-2.183,3.384-4.674,2.468-6.428-1.134-2.172-4.927-2.5-8.975-.975q.31-.791.574-1.63c2.158-6.89.925-13.409-2.753-14.561-3.585-1.123-8.17,3.269-10.4,9.873-1.845-7.567-6.582-12.9-10.644-11.946-3.824.9-5.7,7.057-4.468,14.114-5.6-2.474-11.009-2.277-12.731.706-1.783,3.089.994,8.1,6.287,11.757-2.509.841-4.234,2.378-4.47,4.308-.29,2.369,1.741,4.705,4.963,6.148a2.291,2.291,0,0,0-.121,1.37c.336,1.428,2.146,2.311,4.513,2.4v.008h30.273v-.026a1.33,1.33,0,0,0,1.166-.717,1.054,1.054,0,0,0-.1-.861c1.574-.153,2.758-.775,3.146-1.813a2.917,2.917,0,0,0-.553-2.661c4.087-.274,7.228-2.064,7.328-4.369.088-2.026-2.2-3.861-5.508-4.7" transform="translate(461.623 -772.4)" fill="#f2f2f2"/>
    <path id="Path_86758" data-name="Path 86758" d="M1619.837,1333.807c-2.068-1.944-3.013-4.162-2.2-5.724,1.009-1.934,4.387-2.23,7.991-.868q-.276-.7-.511-1.452c-1.921-6.135-.824-11.94,2.451-12.966,3.192-1,7.275,2.911,9.258,8.792,1.643-6.738,5.861-11.488,9.478-10.638,3.405.8,5.074,6.284,3.978,12.568,4.989-2.2,9.8-2.028,11.337.629,1.588,2.75-.885,7.215-5.6,10.469,2.234.749,3.77,2.118,3.98,3.836.258,2.109-1.551,4.189-4.419,5.474a2.042,2.042,0,0,1,.108,1.219c-.3,1.272-1.911,2.058-4.018,2.14v.007h-26.957v-.023a1.186,1.186,0,0,1-1.038-.639.94.94,0,0,1,.087-.766c-1.4-.136-2.455-.69-2.8-1.615a2.6,2.6,0,0,1,.493-2.369c-3.64-.244-6.436-1.838-6.525-3.89-.078-1.8,1.96-3.438,4.905-4.185" transform="translate(-483.003 -789.229)" fill="#eaeaea"/>
    <path id="Path_86759" data-name="Path 86759" d="M1779.922,1425.306c-.836-.785-1.218-1.682-.888-2.313.408-.781,1.772-.9,3.229-.351q-.112-.285-.207-.587c-.776-2.479-.333-4.824.99-5.239,1.29-.4,2.939,1.176,3.741,3.552.664-2.723,2.368-4.642,3.83-4.3,1.376.324,2.05,2.539,1.607,5.078,2.016-.89,3.961-.819,4.581.254.642,1.111-.358,2.915-2.262,4.23a2.1,2.1,0,0,1,1.608,1.55c.1.852-.626,1.693-1.786,2.212a.824.824,0,0,1,.044.493c-.121.514-.772.831-1.624.865v0h-10.892v-.009a.48.48,0,0,1-.42-.258.38.38,0,0,1,.035-.31,1.241,1.241,0,0,1-1.132-.652,1.05,1.05,0,0,1,.2-.958c-1.47-.1-2.6-.743-2.636-1.572-.032-.729.792-1.389,1.982-1.691" transform="translate(-612.324 -872.671)" fill="#e4e4e4"/>
    <path id="Path_86760" data-name="Path 86760" d="M1135.549,1342.639c-1.949-1.832-2.84-3.923-2.072-5.4.952-1.823,4.135-2.1,7.533-.818q-.26-.664-.482-1.369c-1.811-5.783-.776-11.255,2.31-12.222,3.009-.942,6.857,2.744,8.727,8.287,1.549-6.352,5.525-10.829,8.934-10.027,3.21.755,4.783,5.923,3.75,11.847,4.7-2.076,9.24-1.911,10.686.593,1.5,2.592-.835,6.8-5.277,9.868,2.106.706,3.554,2,3.752,3.616.243,1.989-1.462,3.949-4.166,5.16a1.923,1.923,0,0,1,.1,1.15c-.282,1.2-1.8,1.939-3.788,2.017v.007h-25.409v-.022a1.117,1.117,0,0,1-.979-.6.885.885,0,0,1,.082-.722,2.9,2.9,0,0,1-2.641-1.522,2.448,2.448,0,0,1,.464-2.233c-3.431-.23-6.067-1.733-6.151-3.667-.073-1.7,1.848-3.241,4.624-3.944" transform="translate(-99.024 -797.28)" fill="#f2f2f2"/>
    <path id="Path_86761" data-name="Path 86761" d="M1279.749,1405.324c-1.1-1.038-1.609-2.222-1.173-3.056.539-1.032,2.342-1.19,4.267-.464q-.148-.376-.273-.775c-1.026-3.276-.44-6.375,1.309-6.922,1.7-.534,3.884,1.554,4.943,4.694.877-3.6,3.129-6.134,5.06-5.68,1.818.428,2.709,3.355,2.124,6.71,2.664-1.176,5.234-1.082,6.053.336.848,1.468-.473,3.853-2.989,5.59a2.772,2.772,0,0,1,2.125,2.048c.138,1.126-.828,2.237-2.36,2.923a1.089,1.089,0,0,1,.058.651c-.16.679-1.02,1.1-2.145,1.143v0h-14.392v-.012a.633.633,0,0,1-.554-.341.5.5,0,0,1,.047-.409,1.639,1.639,0,0,1-1.5-.862,1.387,1.387,0,0,1,.263-1.265c-1.943-.13-3.436-.981-3.484-2.077-.042-.964,1.047-1.836,2.619-2.234" transform="translate(-215.015 -854.453)" fill="#e4e4e4"/>
    <path id="Path_86762" data-name="Path 86762" d="M1318.665,609.062a1.7,1.7,0,0,0-.509.078c.006-.085.009-.17.009-.256a3.587,3.587,0,0,0-7.038-.974,2.324,2.324,0,1,0-.632,4.56c.041,0,.081,0,.121,0v0h8.049a1.7,1.7,0,1,0,0-3.407" transform="translate(-239.641 -229.486)" fill="#f2f2f2"/>
    <path id="Path_86763" data-name="Path 86763" d="M900.328,388.7a5.138,5.138,0,0,0-2.652.733,7.81,7.81,0,0,0-8.588-6,11.069,11.069,0,0,0-21.169,4.525c0,.065,0,.13,0,.2a5.709,5.709,0,1,0-2.439,10.872h34.846a5.165,5.165,0,0,0,0-10.329" transform="translate(116.089 -48.29)" fill="#f2f2f2"/>
    <path id="Path_86764" data-name="Path 86764" d="M785.983,999.313a3.379,3.379,0,0,1,1.744.482,5.15,5.15,0,0,1,5.015-3.984,5.234,5.234,0,0,1,.635.04,7.281,7.281,0,0,1,13.926,2.977c0,.043,0,.086,0,.128a3.756,3.756,0,1,1,1.6,7.152H785.983a3.4,3.4,0,1,1,0-6.795" transform="translate(177.324 -535.912)" fill="#f2f2f2"/>
    <path id="Path_86765" data-name="Path 86765" d="M1877.577,1388l-.054.206a6.213,6.213,0,0,1-.5,1.212,4.447,4.447,0,0,1-4.367,2.577,6.228,6.228,0,0,1-1.3-.152l-.206-.052.054-.206a6.231,6.231,0,0,1,.5-1.212,4.447,4.447,0,0,1,4.367-2.577,6.234,6.234,0,0,1,1.3.153Zm-5.893,3.477a4.348,4.348,0,1,0,2.014-2.713,5.191,5.191,0,0,0-2.014,2.713" transform="translate(-686.275 -850.269)" fill="#e4e4e4"/>
    <path id="Path_86766" data-name="Path 86766" d="M1871.993,1399.5a2.279,2.279,0,1,1,2.964-2.925,6.163,6.163,0,0,1-2.964,2.925" transform="translate(-683.643 -856.824)" fill="#f2f2f2"/>
    <path id="Path_86767" data-name="Path 86767" d="M1842.25,1274.457l0,.265a7.775,7.775,0,0,1-.231,1.613,5.532,5.532,0,0,1-4.489,4.431,7.737,7.737,0,0,1-1.615.21h-.265l0-.265a7.729,7.729,0,0,1,.231-1.613,5.531,5.531,0,0,1,4.489-4.431,7.712,7.712,0,0,1,1.615-.21Zm-6.058,5.98a5.409,5.409,0,1,0,1.609-3.884,6.459,6.459,0,0,0-1.609,3.884" transform="translate(-658.107 -760.354)" fill="#e4e4e4"/>
    <path id="Path_86768" data-name="Path 86768" d="M1838.073,1290.32a2.835,2.835,0,1,1,2.69-4.427,7.668,7.668,0,0,1-2.69,4.427" transform="translate(-655.993 -769.357)" fill="#f2f2f2"/>
    <path id="Path_86769" data-name="Path 86769" d="M542.025,1240.9l.168.143a6.441,6.441,0,0,1,.906,1.01,4.61,4.61,0,0,1,.428,5.238,6.45,6.45,0,0,1-.731,1.144l-.142.169-.168-.143a6.432,6.432,0,0,1-.906-1.01,4.609,4.609,0,0,1-.428-5.238,6.454,6.454,0,0,1,.731-1.144Zm.577,7.069a4.507,4.507,0,0,0-.525-6.434,4.507,4.507,0,0,0,.525,6.434" transform="translate(369.352 -733.732)" fill="#e4e4e4"/>
    <path id="Path_86770" data-name="Path 86770" d="M550.134,1249.351a6.388,6.388,0,0,1-2.1,3.769,5.313,5.313,0,0,1,.717-7.856,6.389,6.389,0,0,1,1.388,4.087" transform="translate(364.521 -737.194)" fill="#f2f2f2"/>
    <path id="Path_86771" data-name="Path 86771" d="M345.407,1362.105l.185-.012a5.436,5.436,0,0,1,1.139.076,3.875,3.875,0,0,1,3.333,2.9,5.425,5.425,0,0,1,.232,1.117l.013.185-.185.012a5.437,5.437,0,0,1-1.139-.076,3.875,3.875,0,0,1-3.333-2.9,5.435,5.435,0,0,1-.232-1.117Zm4.5,3.914a3.789,3.789,0,0,0-4.093-3.563,3.789,3.789,0,0,0,4.093,3.563" transform="translate(524.153 -829.875)" fill="#e4e4e4"/>
    <path id="Path_86772" data-name="Path 86772" d="M356.648,1361.074a5.371,5.371,0,0,1,.946,3.5,4.467,4.467,0,0,1-4.181-5.148,5.373,5.373,0,0,1,3.235,1.645" transform="translate(517.813 -827.766)" fill="#f2f2f2"/>
    <path id="Path_86773" data-name="Path 86773" d="M1599.271,1334.847l.208-.005a6.069,6.069,0,0,1,1.273.137,4.349,4.349,0,0,1,3.6,3.4,6.053,6.053,0,0,1,.209,1.263l.007.208-.208.005a6.071,6.071,0,0,1-1.273-.137,4.349,4.349,0,0,1-3.6-3.4,6.091,6.091,0,0,1-.209-1.263Zm4.864,4.594a4.253,4.253,0,1,0-3.095-1.157,5.078,5.078,0,0,0,3.095,1.157" transform="translate(-470.581 -808.26)" fill="#e4e4e4"/>
    <path id="Path_86774" data-name="Path 86774" d="M1611.834,1334.156a2.228,2.228,0,1,1-3.552-1.992,6.027,6.027,0,0,1,3.552,1.992" transform="translate(-477.698 -806.136)" fill="#f2f2f2"/>
    <path id="Path_86775" data-name="Path 86775" d="M951.623,861.067H855.54l1.748-6.329,3.414-12.359,2.068-7.483,3.048-11.033,5.876-21.268,3.048-11.033L896.17,714h14.823l7.853,28.426,13.575,49.136,3.048,11.033,5.876,21.268,3.048,11.033,5.482,19.842Z" transform="translate(119.447 -315.726)" fill="#6467e4"/>
    <path id="Path_86776" data-name="Path 86776" d="M951.623,970.187H855.54l1.748-6.329L860.7,951.5c66.955-3.955,58.145-99.952,58.145-99.952l31.029,112.311Z" transform="translate(119.447 -424.845)" fill="#343586"/>
    <rect id="Rectangle_149058" data-name="Rectangle 149058" width="135.402" height="12.874" transform="translate(955.328 545.342)" fill="#38488c"/>
    <path id="Path_86777" data-name="Path 86777" d="M951.623,1401.321H855.54l1.748-6.329h92.587Z" transform="translate(119.447 -855.979)" fill="#232851"/>
    <path id="Path_86778" data-name="Path 86778" d="M1047.286,1142.687s-2.013,42.464-50.8,52.178l65.207-.035Z" transform="translate(7.63 -655.816)" fill="#0f102b"/>
    <path id="Path_86779" data-name="Path 86779" d="M997.479,1100.335H933.7l3.048-11.033h57.679Z" transform="translate(57.437 -613.465)" fill="#fff"/>
    <path id="Path_86780" data-name="Path 86780" d="M972.146,1256.63H890.522l3.048-11.033H969.1Z" transform="translate(91.694 -737.459)" fill="#fff"/>
    <path id="Path_86781" data-name="Path 86781" d="M939.963,1425.618s-17.948,13.55-84.423,12.874H971.282v-12.874Z" transform="translate(119.447 -880.275)" fill="#2b3872"/>
    <path id="Path_86782" data-name="Path 86782" d="M823.741,1491.515H646.664a2.176,2.176,0,0,1-2.176-2.176v-.063a2.176,2.176,0,0,1,2.176-2.176H823.741a2.176,2.176,0,0,1,2.176,2.176v.063a2.176,2.176,0,0,1-2.176,2.176" transform="translate(286.882 -929.052)" fill="#242850"/>
    <path id="Path_86783" data-name="Path 86783" d="M552.833,1491.515H524.158a2.176,2.176,0,0,1-2.176-2.176v-.063a2.176,2.176,0,0,1,2.176-2.176h28.675a2.176,2.176,0,0,1,2.176,2.176v.063a2.176,2.176,0,0,1-2.176,2.176" transform="translate(384.07 -929.052)" fill="#242850"/>
    <path id="Path_86784" data-name="Path 86784" d="M344.889,1491.515H314.762a2.176,2.176,0,0,1-2.176-2.176v-.063a2.176,2.176,0,0,1,2.176-2.176h30.127a2.176,2.176,0,0,1,2.176,2.176v.063a2.176,2.176,0,0,1-2.176,2.176" transform="translate(550.191 -929.052)" fill="#242850"/>
    <path id="Path_86785" data-name="Path 86785" d="M1593.542,1491.515h-24.731a2.176,2.176,0,0,1-2.176-2.176v-.063a2.176,2.176,0,0,1,2.176-2.176h24.731a2.176,2.176,0,0,1,2.176,2.176v.063a2.176,2.176,0,0,1-2.176,2.176" transform="translate(-444.689 -929.052)" fill="#242850"/>
    <path id="Path_86786" data-name="Path 86786" d="M1772.693,1491.515h-18.81a2.176,2.176,0,0,1-2.176-2.176v-.063a2.176,2.176,0,0,1,2.176-2.176h18.81a2.176,2.176,0,0,1,2.176,2.176v.063a2.176,2.176,0,0,1-2.176,2.176" transform="translate(-591.513 -929.052)" fill="#242850"/>
  </g>
</svg>
