<svg id="Group_167676" data-name="Group 167676" xmlns="http://www.w3.org/2000/svg" xmlns:xlink="http://www.w3.org/1999/xlink" width="300" height="300" viewBox="0 0 300 300">
  <defs>
    <clipPath id="clip-path">
      <rect id="Rectangle_149064" data-name="Rectangle 149064" width="300" height="300" fill="none"/>
    </clipPath>
    <clipPath id="clip-path-2">
      <path id="Path_86787" data-name="Path 86787" d="M30,149A120,120,0,1,0,150,29,120,120,0,0,0,30,149" fill="none"/>
    </clipPath>
    <linearGradient id="linear-gradient" x1="-0.121" y1="1.126" x2="-0.117" y2="1.126" gradientUnits="objectBoundingBox">
      <stop offset="0" stop-color="#f2f2f2"/>
      <stop offset="1" stop-color="#efefef"/>
    </linearGradient>
    <clipPath id="clip-path-3">
      <rect id="Rectangle_149061" data-name="Rectangle 149061" width="124.537" height="155.029" rx="16" transform="translate(89 63.556)" fill="none"/>
    </clipPath>
    <linearGradient id="linear-gradient-2" x1="-0.715" y1="1.525" x2="-0.707" y2="1.525" gradientUnits="objectBoundingBox">
      <stop offset="0" stop-color="#fff"/>
      <stop offset="0.719" stop-color="#fafafa"/>
      <stop offset="1" stop-color="#fafafa"/>
    </linearGradient>
    <clipPath id="clip-path-5">
      <rect id="Rectangle_149062" data-name="Rectangle 149062" width="109" height="108" transform="translate(131 109)" fill="none"/>
    </clipPath>
  </defs>
  <g id="Group_167675" data-name="Group 167675" clip-path="url(#clip-path)">
    <g id="Group_167667" data-name="Group 167667">
      <g id="Group_167666" data-name="Group 167666" clip-path="url(#clip-path-2)">
        <rect id="Rectangle_149059" data-name="Rectangle 149059" width="241.396" height="241.396" transform="translate(28.6 29.008) rotate(-0.334)" fill="url(#linear-gradient)"/>
      </g>
    </g>
    <g id="Group_167669" data-name="Group 167669">
      <g id="Group_167668" data-name="Group 167668" clip-path="url(#clip-path-3)">
        <rect id="Rectangle_149060" data-name="Rectangle 149060" width="124.537" height="155.029" transform="translate(89 63.556)" fill="url(#linear-gradient-2)"/>
      </g>
    </g>
    <g id="Group_167674" data-name="Group 167674">
      <g id="Group_167673" data-name="Group 167673" clip-path="url(#clip-path)">
        <path id="Path_86788" data-name="Path 86788" d="M104.9,83.556h40.2a4.9,4.9,0,0,1,0,9.8H104.9a4.9,4.9,0,0,1,0-9.8" fill="#d5d5d5"/>
        <path id="Path_86789" data-name="Path 86789" d="M104.9,111.356h90.2a4.9,4.9,0,0,1,0,9.8H104.9a4.9,4.9,0,1,1,0-9.8" fill="#d5d5d5"/>
        <path id="Path_86790" data-name="Path 86790" d="M104.9,139.156h90.2a4.9,4.9,0,0,1,0,9.8H104.9a4.9,4.9,0,1,1,0-9.8" fill="#d5d5d5"/>
        <path id="Path_86791" data-name="Path 86791" d="M104.9,166.956h90.2a4.9,4.9,0,0,1,0,9.8H104.9a4.9,4.9,0,1,1,0-9.8" fill="#d5d5d5"/>
        <path id="Path_86792" data-name="Path 86792" d="M104.9,194.756h90.2a4.9,4.9,0,0,1,0,9.8H104.9a4.9,4.9,0,1,1,0-9.8" fill="#d5d5d5"/>
        <path id="Path_86793" data-name="Path 86793" d="M288.15,46.424H228.069A5.207,5.207,0,0,0,223,51.759V81.478a5.208,5.208,0,0,0,5.069,5.335H288.15a5.207,5.207,0,0,0,5.069-5.335V51.759a5.206,5.206,0,0,0-5.069-5.335" fill="#fff"/>
        <path id="Path_86794" data-name="Path 86794" d="M238,73a6,6,0,1,0-6-6,6,6,0,0,0,6,6" fill="#ccc6d9"/>
        <path id="Path_86795" data-name="Path 86795" d="M258,61h20a6,6,0,0,1,0,12H258a6,6,0,0,1,0-12" fill="#d5d5d5"/>
        <path id="Path_86796" data-name="Path 86796" d="M185.11,225.563A62.209,62.209,0,0,0,219.9,214.989l40.7,38.852,14.761-17.125-39.273-37.49a62.5,62.5,0,1,0-50.982,26.337m53.309-62.5a52.914,52.914,0,1,1-52.914-52.913,52.914,52.914,0,0,1,52.914,52.913" fill="#6467e4" fill-rule="evenodd"/>
        <g id="Group_167672" data-name="Group 167672" opacity="0.3">
          <g id="Group_167671" data-name="Group 167671">
            <g id="Group_167670" data-name="Group 167670" clip-path="url(#clip-path-5)">
              <path id="Path_86797" data-name="Path 86797" d="M185.5,217c30.1,0,54.5-24.177,54.5-54s-24.4-54-54.5-54S131,133.177,131,163s24.4,54,54.5,54" fill="#fff"/>
            </g>
          </g>
        </g>
        <path id="Path_86798" data-name="Path 86798" d="M194.923,163l13.189-13.138a6.84,6.84,0,0,0-.136-9.575,6.943,6.943,0,0,0-9.634-.136l-13.218,13.138-13.189-13.138a6.939,6.939,0,0,0-9.911-.139,6.843,6.843,0,0,0,.141,9.85L175.376,163l-13.211,13.138a6.843,6.843,0,0,0-.141,9.85,6.94,6.94,0,0,0,9.911-.139l13.218-13.138,13.219,13.138a6.943,6.943,0,0,0,9.462-.3,6.839,6.839,0,0,0,.278-9.406Z" fill="#6467e4"/>
        <path id="Path_86799" data-name="Path 86799" d="M260.6,253.843l14.761-17.126,2.223,2.123a11.986,11.986,0,0,1,.756,16.323,10.769,10.769,0,0,1-7.6,3.778,10.66,10.66,0,0,1-7.912-2.983l-2.223-2.122Z" fill="#e1dceb"/>
        <path id="Path_86800" data-name="Path 86800" d="M56.314,91.172a18.909,18.909,0,0,0-.555-4.313c-1.255-5.082-6.853-8.345-12.811-9.112s-12.149.979-14.536,5.4a8.367,8.367,0,0,0-1,6.542,8.511,8.511,0,0,0,3.662,4.522c4.988,3.287,13.724,3.958,17.71,2.584a44.578,44.578,0,0,0,5.4-2.282c-1,5.746-4.738,11.189-9.724,16.094-10.836,10.661-27.65,18.753-36.807,21.728a.981.981,0,0,0-.612,1.219.926.926,0,0,0,1.167.642c9.339-3.034,26.48-11.3,37.53-22.17,5.709-5.615,9.776-11.937,10.471-18.583,12.9-7.2,23.5-20.266,32.563-31.262a1,1,0,0,0-.1-1.374.908.908,0,0,0-1.316.1C78.668,71.456,68.581,84,56.314,91.172m-1.876,1.045a17.032,17.032,0,0,0-.487-4.873c-1.085-4.4-6.073-7-11.231-7.664A16.678,16.678,0,0,0,33.758,80.8a7.84,7.84,0,0,0-3.719,3.306A6.449,6.449,0,0,0,29.2,89.1a6.584,6.584,0,0,0,2.879,3.462c4.546,3,12.5,3.634,16.128,2.382a43.883,43.883,0,0,0,6.235-2.726" fill-rule="evenodd"/>
        <path id="Path_86801" data-name="Path 86801" d="M285,178a6,6,0,1,1-6,6,6,6,0,0,1,6-6" fill="#e3e3e3"/>
        <path id="Path_86802" data-name="Path 86802" d="M58.384,225.394a9.784,9.784,0,0,0,3.067-1.708,5.936,5.936,0,0,0,1.733-3.343c.362-1.6.507-3.3.946-4.9a1.534,1.534,0,0,1,.609-.919,1.436,1.436,0,0,1,1-.294,1.458,1.458,0,0,1,1.253.855,1.815,1.815,0,0,1,.156.445c.031.148.052.609.085.8.083.469.152.938.218,1.409a13.768,13.768,0,0,0,1.028,4.344c.931,1.957,1.864,3.154,3.129,3.685a7.634,7.634,0,0,0,4.555.014q.267-.067.528-.116a1.546,1.546,0,0,1,1.774,1.282,1.62,1.62,0,0,1-1.179,1.894q-.255.06-.5.112c-2.526.658-5.45,3.006-7.149,5.062-.523.634-1.29,2.407-2.072,3.537a4.118,4.118,0,0,1-1.771,1.579,1.518,1.518,0,0,1-.926.044,1.561,1.561,0,0,1-.911-.641,1.865,1.865,0,0,1-.3-.742,5.79,5.79,0,0,1-.029-.708c-.16-.577-.355-1.14-.5-1.722a9.983,9.983,0,0,0-1.794-3.431,6.251,6.251,0,0,0-2.7-2.316c-.151-.039-1.373-.354-1.8-.534a1.966,1.966,0,0,1-1.04-.948,1.9,1.9,0,0,1-.167-1.055,1.753,1.753,0,0,1,.571-1.11,1.972,1.972,0,0,1,.918-.458,11.912,11.912,0,0,1,1.27-.115m7.167-2.264c.056.133.117.266.181.4C67.1,226.4,68.62,228,70.474,228.774l.062.025a21.105,21.105,0,0,0-3.22,3.09,18.889,18.889,0,0,0-1.327,2.226,13.873,13.873,0,0,0-2.153-4.07,9.365,9.365,0,0,0-2.406-2.508,10.6,10.6,0,0,0,2.007-1.377,8.042,8.042,0,0,0,2.114-3.03" fill="#ccc6d9" fill-rule="evenodd"/>
      </g>
    </g>
  </g>
</svg>
