<svg xmlns="http://www.w3.org/2000/svg" width="34.089" height="34.088" viewBox="0 0 34.089 34.088">
  <path id="problems" d="M33.216,14.28,30.4,13.367A13.967,13.967,0,0,0,28.83,9.575l1.345-2.638a.525.525,0,0,0-.1-.61L27.244,3.494a.524.524,0,0,0-.609-.1l-2.64,1.345A13.893,13.893,0,0,0,20.2,3.17L19.288.353a.525.525,0,0,0-.5-.363H14.779a.526.526,0,0,0-.5.363l-.912,2.816A13.914,13.914,0,0,0,9.575,4.741L6.936,3.4a.526.526,0,0,0-.61.1L3.492,6.326a.525.525,0,0,0-.1.61L4.741,9.575a13.955,13.955,0,0,0-1.572,3.79L.353,14.28a.525.525,0,0,0-.363.5V18.79a.526.526,0,0,0,.363.5l2.816.915a13.96,13.96,0,0,0,1.572,3.79L3.4,26.633a.525.525,0,0,0,.1.609l2.834,2.836a.524.524,0,0,0,.61.1L9.574,28.83a13.907,13.907,0,0,0,3.792,1.57l.913,2.816a.525.525,0,0,0,.5.363h4.009a.526.526,0,0,0,.5-.363L20.2,30.4a13.865,13.865,0,0,0,3.79-1.57l2.64,1.345a.525.525,0,0,0,.61-.1l2.834-2.836a.526.526,0,0,0,.1-.61l-.911-1.784-.434-.853A13.954,13.954,0,0,0,30.4,20.2l2.816-.915a.525.525,0,0,0,.363-.5V14.779a.526.526,0,0,0-.363-.5Zm-.687,4.127L29.8,19.3a.524.524,0,0,0-.35.383,12.913,12.913,0,0,1-1.662,4.012.526.526,0,0,0-.024.518l1.305,2.562-2.294,2.3L24.209,27.76a.524.524,0,0,0-.518.024,12.844,12.844,0,0,1-4.011,1.662.526.526,0,0,0-.384.35l-.89,2.734H15.161L14.275,29.8a.526.526,0,0,0-.384-.351,12.865,12.865,0,0,1-4.013-1.662.526.526,0,0,0-.518-.024L6.8,29.064l-2.294-2.3,1.3-2.561a.526.526,0,0,0-.023-.518,12.913,12.913,0,0,1-1.664-4.012.526.526,0,0,0-.35-.383L1.04,18.407V15.161l2.733-.888a.524.524,0,0,0,.35-.383A12.925,12.925,0,0,1,5.786,9.878a.526.526,0,0,0,.023-.518L4.506,6.8,6.8,4.506l2.56,1.3a.525.525,0,0,0,.519-.024,12.866,12.866,0,0,1,4.013-1.664.527.527,0,0,0,.383-.35l.886-2.733h3.246L19.3,3.773a.524.524,0,0,0,.383.35,12.835,12.835,0,0,1,4.011,1.664.525.525,0,0,0,.519.024l2.562-1.3L29.065,6.8l-1.3,2.562a.524.524,0,0,0,.024.518,12.916,12.916,0,0,1,1.664,4.013.527.527,0,0,0,.35.383l2.731.886Zm-8.388.568a7.675,7.675,0,0,0-5.689-9.683,2.4,2.4,0,0,0-3.333,0A7.68,7.68,0,0,0,9.43,18.977l-1.387,2.4A2.381,2.381,0,0,0,10.1,24.951H23.466a2.381,2.381,0,0,0,2.062-3.572Zm-.731-2.191a6.783,6.783,0,0,1-.052.834l-4.007-6.94a6.64,6.64,0,0,1,4.059,6.107Zm-13.247,0a6.641,6.641,0,0,1,4.06-6.107l-4.007,6.941a6.783,6.783,0,0,1-.052-.834Zm14.456,6.451a1.281,1.281,0,0,1-1.151.665H10.1a1.33,1.33,0,0,1-1.152-2l6.679-11.57A1.335,1.335,0,0,1,17.77,10.1l.02.023a1.406,1.406,0,0,1,.148.211l5.18,8.972.009.014L24.617,21.9A1.288,1.288,0,0,1,24.617,23.235ZM16.8,11.7h-.041a1.375,1.375,0,0,0-1.021.439,1.39,1.39,0,0,0-.388,1.04v0l.214,4.271a1.2,1.2,0,0,0,1.2,1.144h.03A1.2,1.2,0,0,0,18,17.449l.212-4.272A1.408,1.408,0,0,0,16.8,11.7Zm.359,1.429L16.952,17.4a.152.152,0,0,1-.152.145h-.03a.15.15,0,0,1-.15-.144l-.214-4.271a.343.343,0,0,1,.1-.269.328.328,0,0,1,.258-.112H16.8a.333.333,0,0,1,.26.112.338.338,0,0,1,.1.268Zm-.379,6.095a1.327,1.327,0,1,0,1.326,1.326A1.328,1.328,0,0,0,16.784,19.219Zm0,1.6a.276.276,0,1,1,0-.552.276.276,0,1,1,0,.552Z" transform="translate(0.26 0.26)" fill="#6467e4" stroke="#6467e4" stroke-width="0.5"/>
</svg>
