<svg xmlns="http://www.w3.org/2000/svg" width="52.143" height="67.5" viewBox="0 0 52.143 67.5">
  <g id="surface1" transform="translate(-0.5)">
    <path id="Path_86635" data-name="Path 86635" d="M34.429,11.643V0H7A6.532,6.532,0,0,0,.5,6.482V61.018A6.531,6.531,0,0,0,7,67.5H46.143a6.532,6.532,0,0,0,6.5-6.482V19.107H41.91A7.465,7.465,0,0,1,34.429,11.643ZM15.071,33.411,25.536,22.179a1.428,1.428,0,0,1,1.053-.446,1.458,1.458,0,0,1,1.054.446L38.107,33.411A1.419,1.419,0,0,1,37.072,35.8a1.52,1.52,0,0,1-1.054-.446L28,26.786V47.2a1.429,1.429,0,1,1-2.857,0V26.786l-7.982,8.571a1.428,1.428,0,1,1-2.089-1.947ZM42.7,56.607a1.433,1.433,0,0,1-1.429,1.429H11.875a1.429,1.429,0,1,1,0-2.857H41.286A1.418,1.418,0,0,1,42.7,56.607Zm0,0" fill="#6467e4"/>
    <path id="Path_86636" data-name="Path 86636" d="M284.152,30.714h8.768L279.527,16.66v9.446A4.6,4.6,0,0,0,284.152,30.714Zm0,0" transform="translate(-242.242 -14.464)" fill="#6467e4"/>
  </g>
</svg>
