<svg xmlns="http://www.w3.org/2000/svg" width="30" height="31.25" viewBox="0 0 30 31.25">
  <g id="Group_166477" data-name="Group 166477" transform="translate(20805 7507)">
    <rect id="Rectangle_148766" data-name="Rectangle 148766" width="30" height="30" transform="translate(-20805 -7507)" fill="none"/>
    <g id="advice_2_" data-name="advice (2)" transform="translate(-20818.25 -7518.769)">
      <path id="Path_86672" data-name="Path 86672" d="M42.592,58.082a4.415,4.415,0,0,0-6.243,0l-1.641,1.641A2.332,2.332,0,0,0,32.376,57.4H26.217a1.985,1.985,0,0,0-1.413.585l-3.773,3.774-.554-.554a.477.477,0,0,0-.674,0L17.39,63.617a.477.477,0,0,0,0,.675l7.064,7.064a.477.477,0,0,0,.675,0l2.412-2.412a.477.477,0,0,0,0-.674l-.421-.421,1.667-1.667A.609.609,0,0,1,29.22,66H34.3a2.519,2.519,0,0,0,1.793-.743l6.5-6.5a.477.477,0,0,0,0-.675Zm-17.8,12.262-6.39-6.39,1.738-1.739,6.391,6.391Zm10.623-5.76a1.593,1.593,0,0,1-1.117.463H29.22a1.556,1.556,0,0,0-1.108.459l-1.666,1.667-4.734-4.747,3.767-3.767a1.038,1.038,0,0,1,.739-.306h6.159a1.379,1.379,0,0,1,1.372,1.515A1.433,1.433,0,0,1,32.3,61.111H29.288a.477.477,0,1,0,0,.954h4.23a.477.477,0,0,0,.337-.14l3.169-3.168a3.461,3.461,0,0,1,4.534-.314Z" transform="translate(0 -28.727)" stroke="#000" stroke-width="0.5"/>
      <path id="Path_86673" data-name="Path 86673" d="M43.2,24.658h7.255L53.1,26.206a.477.477,0,0,0,.718-.412V18.881A1.583,1.583,0,0,0,52.237,17.3H43.2a1.583,1.583,0,0,0-1.581,1.581v4.2A1.583,1.583,0,0,0,43.2,24.658Zm-.627-5.778a.627.627,0,0,1,.627-.627h9.037a.627.627,0,0,1,.627.627v4.176c0,.02-.005.04-.007.06a.459.459,0,0,0,.007.111v1.734l-2.039-1.193a.473.473,0,0,0-.241-.065H43.2a.627.627,0,0,1-.627-.627Z" transform="translate(-17.728)" stroke="#000" stroke-width="0.5"/>
      <path id="Path_86674" data-name="Path 86674" d="M62.164,28.7a.852.852,0,1,0-.852-.852A.852.852,0,0,0,62.164,28.7Zm0-.954a.1.1,0,1,1-.1.1A.1.1,0,0,1,62.164,27.749Z" transform="translate(-32.054 -7.056)" stroke="#000" stroke-width="0.5"/>
      <path id="Path_86675" data-name="Path 86675" d="M72.1,28.7a.852.852,0,1,0-.852-.852A.852.852,0,0,0,72.1,28.7Zm0-.954a.1.1,0,1,1-.1.1A.1.1,0,0,1,72.1,27.749Z" transform="translate(-39.283 -7.056)" stroke="#000" stroke-width="0.5"/>
      <path id="Path_86676" data-name="Path 86676" d="M52.227,28.7a.852.852,0,1,0-.852-.852A.852.852,0,0,0,52.227,28.7Zm0-.954a.1.1,0,1,1-.1.1.1.1,0,0,1,.1-.1Z" transform="translate(-24.825 -7.056)" stroke="#000" stroke-width="0.5"/>
    </g>
  </g>
</svg>
