<svg id="Component_38_34" data-name="Component 38 – 34" xmlns="http://www.w3.org/2000/svg" width="36" height="36" viewBox="0 0 36 36">
  <rect id="Rectangle_1025" data-name="Rectangle 1025" width="36" height="36" fill="none"/>
  <g id="Group_165228" data-name="Group 165228" transform="translate(-265.986 -705.229)">
    <path id="Path_85519" data-name="Path 85519" d="M274.19,723.185a1.023,1.023,0,0,1,1.45-.732.968.968,0,0,1,.567.894c.009.106,0,.214,0,.32v10.061c0,.338,0,.339.338.339h10.129a2.59,2.59,0,0,1,.32.009.958.958,0,0,1,.921.936.981.981,0,0,1-.762,1.048.544.544,0,0,0-.063.027h-11.12a3.232,3.232,0,0,1-.611-.179,2.035,2.035,0,0,1-1.174-1.606Z" transform="translate(0 -3.007)" fill="#6467e4"/>
    <path id="Path_85520" data-name="Path 85520" d="M287.925,729.162q-2.917,0-5.833,0a1.941,1.941,0,0,1-1.979-1.985c0-3.873.017-7.747-.013-11.62a2.042,2.042,0,0,1,2.066-2.068q3.054,0,6.108,0c1.807,0,3.614,0,5.421,0a2,2,0,0,1,2.022,1.53,2.447,2.447,0,0,1,.069.589q0,5.729,0,11.46a2,2,0,0,1-1.619,2.065,2.055,2.055,0,0,1-.409.027Q290.842,729.163,287.925,729.162Zm-5.815-7.815q0,2.756,0,5.511c0,.306,0,.307.3.307h11.046c.3,0,.3,0,.3-.3q0-5.523,0-11.046c0-.224-.054-.3-.292-.3q-5.535.01-11.07,0c-.233,0-.3.069-.295.3C282.114,717.657,282.111,719.5,282.111,721.347Z" transform="translate(-2.003)" fill="#6467e4"/>
    <path id="Path_85521" data-name="Path 85521" d="M293.858,721.891a.867.867,0,0,1-.273.68q-1.969,1.976-3.947,3.945a.922.922,0,0,1-1.339.017q-1.031-.989-2.02-2.022a.947.947,0,0,1,.05-1.391.98.98,0,0,1,1.4.04c.354.346.709.693,1.049,1.053.137.145.219.149.364,0q1.471-1.488,2.957-2.962a.979.979,0,0,1,1.376-.153A.961.961,0,0,1,293.858,721.891Z" transform="translate(-4.002 -2.507)" fill="#6467e4"/>
  </g>
</svg>
