<svg xmlns="http://www.w3.org/2000/svg" width="15.482" height="15.482" viewBox="0 0 15.482 15.482">
  <g id="layer1" transform="translate(-122 -412.65)">
    <g id="g22206" transform="translate(122 412.65)">
      <g id="g22210" transform="translate(7.729 2.02) rotate(45)">
        <path id="path22200" d="M3.506.228a.774.774,0,0,0-.227.547V3.285H.774a.775.775,0,1,0,0,1.549h2.5V7.342a.775.775,0,1,0,1.549,0V4.833H7.334a.775.775,0,1,0,0-1.549h-2.5V.774A.774.774,0,0,0,3.506.228Z" transform="translate(0)" fill="#494949"/>
      </g>
      <path id="circle22204" d="M9.741,292.65a7.741,7.741,0,1,0,7.741,7.741A7.753,7.753,0,0,0,9.741,292.65Zm0,1.548a6.193,6.193,0,1,1-6.193,6.193A6.181,6.181,0,0,1,9.741,294.2Z" transform="translate(-2 -292.65)" fill="#494949"/>
    </g>
  </g>
</svg>
