<svg xmlns="http://www.w3.org/2000/svg" xmlns:xlink="http://www.w3.org/1999/xlink" width="30" height="30" viewBox="0 0 30 30">
  <defs>
    <clipPath id="clip-path">
      <rect id="Rectangle_148745" data-name="Rectangle 148745" width="20.765" height="20.771" fill="#242424" stroke="#242424" stroke-width="0.5"/>
    </clipPath>
  </defs>
  <g id="Group_166470" data-name="Group 166470" transform="translate(20805 7980)">
    <rect id="Rectangle_148763" data-name="Rectangle 148763" width="30" height="30" transform="translate(-20805 -7980)" fill="none"/>
    <g id="Group_166244" data-name="Group 166244" transform="translate(-20800.383 -7975.156)">
      <g id="Group_166243" data-name="Group 166243" transform="translate(0 0)" clip-path="url(#clip-path)">
        <path id="Path_86506" data-name="Path 86506" d="M39.525,0a1.669,1.669,0,0,1,.96.7,1.529,1.529,0,0,1,.23.806q0,4.538,0,9.077a1.516,1.516,0,0,1-1.54,1.543c-1.52.005-3.039,0-4.559,0-.621,0-1.243,0-1.864,0a1.539,1.539,0,0,1-1.584-1.592q0-4.407,0-8.814A1.568,1.568,0,0,1,32.392,0ZM32.517,6.037q0,2.187,0,4.374c0,.347.019.365.368.365H39c.345,0,.387-.041.387-.381q0-4.354,0-8.708c0-.32-.057-.375-.378-.375H32.894c-.333,0-.376.044-.376.371q0,2.177,0,4.354" transform="translate(-19.95 -0.001)" fill="#242424" stroke="#242424" stroke-width="0.5"/>
        <path id="Path_86507" data-name="Path 86507" d="M0,25.184a1.551,1.551,0,0,1,1.279-1.2,1.691,1.691,0,0,1,.3-.022q3.171,0,6.341,0a1.54,1.54,0,0,1,1.612,1.6q0,4.467,0,8.934a1.526,1.526,0,0,1-1.6,1.6c-2.1,0-4.2-.014-6.3.008a1.59,1.59,0,0,1-1.6-1.123A.556.556,0,0,0,0,34.91Zm8.182,4.849q0-2.2,0-4.395c0-.3-.031-.329-.323-.329h-6.2c-.3,0-.351.051-.351.356q0,4.374,0,8.748c0,.3.063.36.353.36H7.821c.313,0,.361-.049.361-.366q0-2.187,0-4.374" transform="translate(0 -15.336)" fill="#242424" stroke="#242424" stroke-width="0.5"/>
        <path id="Path_86508" data-name="Path 86508" d="M8.308,0A1.551,1.551,0,0,1,9.515,1.3a1.888,1.888,0,0,1,.018.322q0,1.842,0,3.685A1.546,1.546,0,0,1,7.9,6.94H1.721A1.572,1.572,0,0,1,0,5.714V1.175A1.67,1.67,0,0,1,1.175,0ZM4.763,5.589H7.84c.312,0,.342-.028.342-.33q0-1.8,0-3.6c0-.289-.054-.343-.344-.343H1.663c-.29,0-.352.064-.352.361q0,1.781,0,3.563c0,.3.051.353.354.353h3.1" transform="translate(0 0)" fill="#242424" stroke="#242424" stroke-width="0.5"/>
        <path id="Path_86509" data-name="Path 86509" d="M35.948,45.326c-1.074,0-2.147,0-3.221,0a1.522,1.522,0,0,1-1.564-1.561q-.006-1.914,0-3.828a1.535,1.535,0,0,1,1.57-1.563q3.211,0,6.422,0a1.519,1.519,0,0,1,1.555,1.569q0,1.915,0,3.829a1.508,1.508,0,0,1-1.561,1.555c-1.067,0-2.134,0-3.2,0m-.005-5.6h-3.1c-.3,0-.33.031-.33.321q0,1.8,0,3.6c0,.3.051.352.355.352h6.155c.3,0,.361-.061.362-.372q0-1.772,0-3.543c0-.314-.048-.362-.365-.362H35.943" transform="translate(-19.947 -24.562)" fill="#242424" stroke="#242424" stroke-width="0.5"/>
      </g>
    </g>
  </g>
</svg>
