<svg xmlns="http://www.w3.org/2000/svg" width="23.211" height="23.196" viewBox="0 0 23.211 23.196">
  <g id="Layer_2" data-name="Layer 2" transform="translate(-1.486 -1.504)">
    <path id="Path_86699" data-name="Path 86699" d="M17.669,16.548h-2.9l.6-2a2.394,2.394,0,0,0-1.54-2.979,1.308,1.308,0,0,0-1.68.928l-.093.39a7.99,7.99,0,0,1-2.1,3.712l-.529.52a1.448,1.448,0,0,0-1.123-.548H7.638A1.448,1.448,0,0,0,6.19,18v5.976A1.448,1.448,0,0,0,7.638,25.42h.677a1.438,1.438,0,0,0,1.234-.705l.13.065a6.078,6.078,0,0,0,2.7.64h3.331A3.322,3.322,0,0,0,18.5,23.935a5.883,5.883,0,0,0,.993-3.276V18.348a1.8,1.8,0,0,0-1.819-1.8ZM8.8,23.972a.52.52,0,0,1-.52.52h-.64a.52.52,0,0,1-.52-.52V18a.52.52,0,0,1,.52-.52h.677A.52.52,0,0,1,8.8,18Zm9.744-3.313a4.993,4.993,0,0,1-.835,2.784,2.4,2.4,0,0,1-2,1.067H12.38a5.132,5.132,0,0,1-2.283-.538l-.371-.186v-5.7l.854-.854A8.936,8.936,0,0,0,12.927,13.1l.093-.38a.4.4,0,0,1,.186-.241.371.371,0,0,1,.3,0,1.466,1.466,0,0,1,.928,1.856l-.78,2.608a.464.464,0,0,0,.074.408.445.445,0,0,0,.371.186h3.517a.872.872,0,0,1,.872.872Z" transform="translate(-0.339 -0.72)"/>
    <path id="Path_86700" data-name="Path 86700" d="M10.881,6.883l-.3,1.717a1.012,1.012,0,0,0,.408,1.011,1.03,1.03,0,0,0,.6.2,1.1,1.1,0,0,0,.483-.121l1.587-.817,1.55.817a1.032,1.032,0,0,0,1.494-1.086l-.26-1.726,1.216-1.206a1.021,1.021,0,0,0,.269-1.058,1.039,1.039,0,0,0-.835-.705l-1.735-.251-.77-1.587a1.039,1.039,0,0,0-1.856,0l-.77,1.568-1.735.251A1.039,1.039,0,0,0,9.4,4.6a1.021,1.021,0,0,0,.269,1.076Zm-.557-2.069L12.3,4.526a.455.455,0,0,0,.436-.251l.928-1.791a.1.1,0,0,1,.186,0l.928,1.791a.455.455,0,0,0,.353.251l1.977.288a.111.111,0,0,1,.084.074.1.1,0,0,1,0,.1L15.762,6.381a.492.492,0,0,0-.139.418l.343,1.958a.084.084,0,0,1-.046.1.093.093,0,0,1-.111,0l-1.763-.928a.436.436,0,0,0-.427,0l-1.772.928a.1.1,0,0,1-.148-.1L12.04,6.8a.492.492,0,0,0-.139-.418L10.472,4.99a.1.1,0,0,1,0-.1.111.111,0,0,1-.111-.074Z" transform="translate(-0.566)"/>
    <path id="Path_86701" data-name="Path 86701" d="M6.918,12.7a.928.928,0,0,0,.928-1.1L7.6,10.183,8.635,9.172a.928.928,0,0,0-.52-1.605l-1.42-.2-.64-1.29a.974.974,0,0,0-1.689,0l-.64,1.29-1.42.2a.928.928,0,0,0-.52,1.605l1.03,1.011-.251,1.411a.943.943,0,0,0,1.373.993l1.271-.668,1.271.668a.928.928,0,0,0,.436.111ZM5.211,10.935A.427.427,0,0,0,5,10.99l-1.513.761L3.819,10.1a.492.492,0,0,0-.186-.418l-1.2-1.2,1.67-.241a.436.436,0,0,0,.343-.251L5.22,6.48l.752,1.513a.436.436,0,0,0,.343.251l1.67.269-1.2,1.169a.492.492,0,0,0-.139.418l.269,1.67-1.494-.78a.427.427,0,0,0-.213-.056Z" transform="translate(0 -0.294)"/>
    <path id="Path_86702" data-name="Path 86702" d="M25.876,8.206a.928.928,0,0,0-.761-.64l-1.42-.2-.64-1.29a.974.974,0,0,0-1.689,0l-.64,1.29-1.42.2a.928.928,0,0,0-.52,1.605l1.03,1.011-.251,1.411a.943.943,0,0,0,1.373.993l1.271-.668,1.271.668a.933.933,0,0,0,1.364-.993L24.6,10.183l1.03-1.011a.928.928,0,0,0,.251-.965ZM23.788,9.682a.492.492,0,0,0-.139.418l.269,1.67-1.494-.78a.436.436,0,0,0-.427,0l-1.513.761.334-1.652a.492.492,0,0,0-.186-.418l-1.2-1.2,1.67-.241a.436.436,0,0,0,.343-.251l.77-1.513.752,1.513a.436.436,0,0,0,.343.251l1.67.269Z" transform="translate(-1.224 -0.294)"/>
  </g>
</svg>
