<svg xmlns="http://www.w3.org/2000/svg" width="26.426" height="30.381" viewBox="0 0 26.426 30.381">
  <g id="Group_167690" data-name="Group 167690" transform="translate(20990.156 9459.292)">
    <path id="Path_3848" data-name="Path 3848" d="M38.319,110.793H36.488V120c.108,2.215,1.251,3.194,3.2,3.2h9.381a2.961,2.961,0,0,0,2.918-2.918V108.332l-1.916,1.916v8.117l-11.818.122Z" transform="translate(-21021.809 -9552.617)" fill="none" stroke="#323232" stroke-width="1"/>
    <path id="Path_3849" data-name="Path 3849" d="M87.957,193.543a1.265,1.265,0,1,1-1.265-1.265,1.265,1.265,0,0,1,1.265,1.265" transform="translate(-21064.262 -9625.437)" fill="#fff" stroke="#323232" stroke-width="1"/>
    <path id="Path_3852" data-name="Path 3852" d="M64.876,89.986a12.534,12.534,0,0,1-6.836,6.654,9.329,9.329,0,0,1-5.091-3.792,36.335,36.335,0,0,0,11.928-2.861" transform="translate(-21036.086 -9536.702)" fill="#fff" stroke="#323232" stroke-width="1"/>
    <path id="Path_3853" data-name="Path 3853" d="M31.975,3.561A13.851,13.851,0,0,0,39.954,0a15.071,15.071,0,0,0,8.111,3.561V8.412a40.819,40.819,0,0,1-14.916,4.015c-.973-1.865-1.1-5.561-1.027-9.382" transform="translate(-21017.883 -9458.643)" fill="none" stroke="#323232" stroke-width="1"/>
    <path id="Path_3855" data-name="Path 3855" d="M58.133,106.012a32.114,32.114,0,0,1-5.188.718,9.332,9.332,0,0,0,5.092,3.792l.1-.04Z" transform="translate(-21036.084 -9550.604)" fill="#e3e3e2" stroke="#323232" stroke-width="1"/>
    <path id="Path_3907" data-name="Path 3907" d="M4.427,42.881c-2.774,0-4.254-.665-4.4-1.98-.2-1.539.861-2.88,3.152-3.976a.54.54,0,0,1,.466.973c-1.824.873-2.681,1.84-2.547,2.873.08.7,1.548,1.089,3.837,1.024a47.377,47.377,0,0,0,12.933-2.714,28.416,28.416,0,0,0,5.393-2.447c1.77-1.105,2.067-1.852,2.086-2.2l0-.041a.4.4,0,0,0-.134-.277,5.608,5.608,0,0,0-3.722-1.045h-.021a.54.54,0,0,1-.021-1.078,6.494,6.494,0,0,1,4.561,1.4,1.4,1.4,0,0,1,.408,1.125c-.163,2.4-5.2,4.527-8.2,5.583A48.533,48.533,0,0,1,4.963,42.873q-.275.008-.535.008" transform="translate(-20990.156 -9486.391)" fill="#323232"/>
  </g>
</svg>
