<svg xmlns="http://www.w3.org/2000/svg" xmlns:xlink="http://www.w3.org/1999/xlink" width="30" height="30" viewBox="0 0 30 30">
  <defs>
    <clipPath id="clip-path">
      <rect id="Rectangle_148716" data-name="Rectangle 148716" width="17.706" height="17.717" fill="#323232"/>
    </clipPath>
  </defs>
  <g id="Group_166473" data-name="Group 166473" transform="translate(20805 7777)">
    <rect id="Rectangle_148760" data-name="Rectangle 148760" width="30" height="30" transform="translate(-20805 -7777)" fill="none"/>
    <g id="Group_166090" data-name="Group 166090" transform="translate(-20799.174 -7770.858)" clip-path="url(#clip-path)">
      <path id="Path_86488" data-name="Path 86488" d="M17.706,11.472a.738.738,0,0,1-.736.495.7.7,0,0,1-.656-.64c0-.08,0-.161,0-.242V2.931a1.472,1.472,0,0,0-.52-1.225,1.567,1.567,0,0,0-1.036-.311q-5.641,0-11.282,0a7.765,7.765,0,0,0-.879.025,1.367,1.367,0,0,0-1.16,1.157,5.777,5.777,0,0,0-.027.62q0,5.779,0,11.558a1.476,1.476,0,0,0,.529,1.238,1.563,1.563,0,0,0,1.021.3H11.13a.945.945,0,0,1,.374.046.713.713,0,0,1,.434.8.7.7,0,0,1-.711.561q-3.222,0-6.444,0c-.691,0-1.382,0-2.073,0A2.758,2.758,0,0,1,0,15Q0,8.846,0,2.7A2.768,2.768,0,0,1,2.281.027C2.32.02,2.359.009,2.4,0H15.322a2.9,2.9,0,0,1,1.486.7,2.869,2.869,0,0,1,.9,1.68Z" transform="translate(0 0)" fill="#323232"/>
      <path id="Path_86489" data-name="Path 86489" d="M46.743,44.726a2.2,2.2,0,0,1-.669,1.2,2.062,2.062,0,0,1-2.852-.045C41.95,44.64,40.7,43.37,39.446,42.111a.991.991,0,0,1-.245-.449c-.24-.865-.482-1.729-.72-2.595a.725.725,0,0,1,.411-.942.705.705,0,0,1,.474-.011q1.331.4,2.66.8a.934.934,0,0,1,.391.245q1.854,1.859,3.71,3.716a2.333,2.333,0,0,1,.615,1.157ZM43.99,42.764c-.027-.03-.058-.07-.094-.106l-2.317-2.321a.5.5,0,0,0-.216-.135q-.512-.153-1.022-.313c-.116-.036-.166-.024-.126.115.107.37.208.742.31,1.113a.318.318,0,0,0,.084.147q1.183,1.185,2.365,2.37c.072.072.123.08.2,0,.249-.256.5-.505.755-.758a.152.152,0,0,0,.063-.114m1.351,1.657a.759.759,0,0,0-.232-.551c-.064-.06-.11-.065-.173,0q-.388.394-.781.782c-.057.057-.055.1,0,.161a.693.693,0,0,0,.755.192.668.668,0,0,0,.434-.583" transform="translate(-29.037 -28.762)" fill="#323232"/>
      <path id="Path_86490" data-name="Path 86490" d="M19.528,14.486q-2.332,0-4.664,0a.7.7,0,0,1-.1-1.4c.046,0,.092,0,.138,0q4.63,0,9.259,0a.723.723,0,0,1,.654.311.7.7,0,0,1-.593,1.1h-4.7" transform="translate(-10.676 -9.878)" fill="#323232"/>
      <path id="Path_86491" data-name="Path 86491" d="M19.5,25.787H14.821a.7.7,0,1,1-.008-1.406h1.762q3.783,0,7.566,0a.72.72,0,0,1,.653.312.7.7,0,0,1-.594,1.1H19.5" transform="translate(-10.652 -18.415)" fill="#323232"/>
      <path id="Path_86492" data-name="Path 86492" d="M16.423,37.09c-.518,0-1.036,0-1.554,0a.7.7,0,1,1,0-1.4q1.563,0,3.126,0a.7.7,0,1,1,0,1.4c-.524,0-1.048,0-1.572,0" transform="translate(-10.676 -26.954)" fill="#323232"/>
    </g>
  </g>
</svg>
