<svg xmlns="http://www.w3.org/2000/svg" xmlns:xlink="http://www.w3.org/1999/xlink" width="30" height="30" viewBox="0 0 30 30">
  <defs>
    <clipPath id="clip-path">
      <rect id="Rectangle_148718" data-name="Rectangle 148718" width="20.938" height="20.938" fill="#323232"/>
    </clipPath>
  </defs>
  <g id="Group_166475" data-name="Group 166475" transform="translate(20805 7637)">
    <rect id="Rectangle_148764" data-name="Rectangle 148764" width="30" height="30" transform="translate(-20805 -7637)" fill="none"/>
    <g id="Group_166096" data-name="Group 166096" transform="translate(-20800.469 -7632.469)" clip-path="url(#clip-path)">
      <path id="Path_86494" data-name="Path 86494" d="M34.047,37.981a14.45,14.45,0,0,1-1.594-.218,5.415,5.415,0,0,1-2.217-.949,2.056,2.056,0,0,1-.846-1.723c.015-1.834.009-3.668,0-5.5a1.959,1.959,0,0,1,.719-1.555,4.914,4.914,0,0,1,2.316-1.044,9.3,9.3,0,0,1,5.426.387,3.391,3.391,0,0,1,1.3.889,1.886,1.886,0,0,1,.493,1.286c0,1.8-.022,3.608.007,5.411a2.257,2.257,0,0,1-1.218,2.1,6.807,6.807,0,0,1-2.692.835c-.247.032-.5.053-.743.08Zm.421-7.332a7.726,7.726,0,0,0,2.516-.382A2.547,2.547,0,0,0,38,29.683a.281.281,0,0,0,0-.452,2.076,2.076,0,0,0-.744-.471,7.89,7.89,0,0,0-5.04-.157,2.565,2.565,0,0,0-1.155.608c-.187.185-.188.32,0,.5a2.221,2.221,0,0,0,.71.443,7.285,7.285,0,0,0,2.7.492m.034,2.909a7.55,7.55,0,0,0,1.312-.1,4.88,4.88,0,0,0,1.9-.633.714.714,0,0,0,.414-.74,2.906,2.906,0,0,1,0-.386c0-.27,0-.269-.243-.172a9.235,9.235,0,0,1-4.794.521,7.348,7.348,0,0,1-1.987-.541c-.081-.036-.167-.1-.192.068a1.129,1.129,0,0,0,.8,1.464l.1.044a7.372,7.372,0,0,0,2.689.472m.014,2.912a8.176,8.176,0,0,0,1.58-.146,4.426,4.426,0,0,0,1.671-.618.67.67,0,0,0,.365-.675,2.493,2.493,0,0,1,0-.454c.01-.178-.029-.228-.216-.151a9.3,9.3,0,0,1-5.373.442,6.849,6.849,0,0,1-1.429-.442c-.073-.032-.166-.115-.2.055a1.093,1.093,0,0,0,.724,1.439c.061.03.124.057.187.082a7.41,7.41,0,0,0,2.69.468" transform="translate(-18.717 -17.043)" fill="#323232"/>
      <path id="Path_86495" data-name="Path 86495" d="M0,2.516A2.687,2.687,0,0,1,1.973.563,9.131,9.131,0,0,1,8.4.605,3.149,3.149,0,0,1,9.876,1.661a1.827,1.827,0,0,1,.373,1.122c0,1.827-.021,3.653.005,5.479a2.167,2.167,0,0,1-1.038,1.946A5.689,5.689,0,0,1,7,11.051a9.568,9.568,0,0,1-4.844-.293A4.042,4.042,0,0,1,.633,9.882,2.13,2.13,0,0,1,0,8.7ZM5.171,3.906c.153-.009.356-.024.561-.034a6.511,6.511,0,0,0,2.017-.411,2.272,2.272,0,0,0,.832-.5c.184-.187.188-.32,0-.5a1.979,1.979,0,0,0-.69-.432,7.81,7.81,0,0,0-5.276-.1,2.24,2.24,0,0,0-.958.549c-.184.19-.184.3,0,.482a2.2,2.2,0,0,0,.727.458,7.594,7.594,0,0,0,2.785.492M8.729,5.228c0-.114-.006-.228,0-.341.01-.16-.031-.2-.192-.128a7.5,7.5,0,0,1-2.731.625,8.8,8.8,0,0,1-4.138-.642c-.13-.058-.16-.016-.158.108a4.863,4.863,0,0,1,0,.568.607.607,0,0,0,.289.577,3.2,3.2,0,0,0,.933.462,8.021,8.021,0,0,0,3.279.31,5.555,5.555,0,0,0,2.136-.578c.382-.2.7-.45.581-.96m0,2.9c0-.1-.007-.2,0-.3.019-.2-.035-.232-.224-.147A7.555,7.555,0,0,1,5.753,8.3a8.779,8.779,0,0,1-4.088-.646c-.137-.061-.155,0-.154.113a4.931,4.931,0,0,1,0,.568.593.593,0,0,0,.274.561,3.137,3.137,0,0,0,.95.475,8.028,8.028,0,0,0,3.275.31A5.613,5.613,0,0,0,8.143,9.1c.392-.207.71-.46.586-.977" transform="translate(0 0)" fill="#323232"/>
      <path id="Path_86496" data-name="Path 86496" d="M43.774,6.8c0,.5,0,1,0,1.5a.744.744,0,1,1-1.486.008c0-.917,0-1.834,0-2.751a1.285,1.285,0,0,0-.384-.986,1.3,1.3,0,0,0-.939-.333c-.932,0-1.865,0-2.8,0a.741.741,0,0,1-.731-.625.757.757,0,0,1,.478-.817.775.775,0,0,1,.29-.043c1,0,2-.007,3,0a2.671,2.671,0,0,1,2.568,2.57c.006.492,0,.985,0,1.478Z" transform="translate(-23.834 -1.748)" fill="#323232"/>
      <path id="Path_86497" data-name="Path 86497" d="M6.631,43.812a13.344,13.344,0,0,1-1.765-.049,2.665,2.665,0,0,1-2.155-2.578c0-.97,0-1.94,0-2.911a.746.746,0,1,1,1.486.008c0,.91,0,1.819,0,2.729A1.253,1.253,0,0,0,4.712,42.1a1.346,1.346,0,0,0,.818.228c.933,0,1.865,0,2.8,0a.741.741,0,0,1,.724.632.76.76,0,0,1-.487.812.861.861,0,0,1-.313.041H6.631" transform="translate(-1.725 -23.859)" fill="#323232"/>
    </g>
  </g>
</svg>
