<svg xmlns="http://www.w3.org/2000/svg" xmlns:xlink="http://www.w3.org/1999/xlink" width="30" height="30" viewBox="0 0 30 30">
  <defs>
    <clipPath id="clip-path">
      <rect id="Rectangle_148748" data-name="Rectangle 148748" width="22.148" height="22.29" fill="#323232"/>
    </clipPath>
  </defs>
  <g id="Group_166474" data-name="Group 166474" transform="translate(20805 7708)">
    <rect id="Rectangle_148759" data-name="Rectangle 148759" width="30" height="30" transform="translate(-20805 -7708)" fill="none"/>
    <g id="Group_166252" data-name="Group 166252" transform="translate(-20801.074 -7704.145)" clip-path="url(#clip-path)">
      <path id="Path_86516" data-name="Path 86516" d="M11.582,0a4,4,0,0,1,1.876.858,9.9,9.9,0,0,1,.769.767c.651.67,1.285,1.357,1.952,2.012.414.406.8.842,1.211,1.246.566.552,1.089,1.144,1.654,1.695.462.451.889.933,1.346,1.388.23.23.469.451.693.688a4.476,4.476,0,0,1,.861,1.4,2.848,2.848,0,0,1,.15,1.639,3.386,3.386,0,0,1-.83,1.718c-.653.708-1.316,1.408-2,2.081-.42.411-.8.858-1.227,1.26s-.833.867-1.264,1.286a.919.919,0,0,1-1.265.014.874.874,0,0,1-.056-1.25,13.022,13.022,0,0,1,.907-.936c.259-.242.49-.514.737-.769.639-.662,1.274-1.328,1.925-1.978.246-.245.495-.488.733-.74a1.717,1.717,0,0,0,0-2.479c-.643-.678-1.289-1.354-1.954-2.01-.33-.326-.645-.666-.971-.995-.6-.607-1.187-1.231-1.791-1.836-.466-.466-.9-.962-1.377-1.419-.444-.428-.858-.883-1.287-1.323a1.831,1.831,0,0,0-2.6-.01C9.212,2.866,8.657,3.438,8.1,4.01c-.525.54-1.035,1.1-1.575,1.619-.484.47-.92.986-1.408,1.449-.511.484-.959,1.029-1.47,1.509-.534.5-1.035,1.036-1.519,1.582a1.566,1.566,0,0,0-.011,1.921,13.813,13.813,0,0,0,1.07,1.14c.558.549,1.081,1.132,1.638,1.68.45.442.864.918,1.317,1.355.521.5,1,1.052,1.517,1.555.5.479.945,1,1.439,1.479.26.252.51.514.775.76a1.805,1.805,0,0,0,1.972.257,2.087,2.087,0,0,0,.566-.4.938.938,0,0,1,1.3.013.876.876,0,0,1-.022,1.267,3.725,3.725,0,0,1-4.282.7,3.685,3.685,0,0,1-1.042-.77C7.746,20.49,7.13,19.846,6.5,19.214c-.945-.95-1.868-1.921-2.809-2.876-.478-.485-.929-1-1.423-1.464-.569-.538-1.094-1.118-1.621-1.7a2.7,2.7,0,0,1-.571-1.208c-.026-.105-.052-.21-.078-.315V10.612L.078,10.3A2.7,2.7,0,0,1,.649,9.088C1.175,8.511,1.7,7.931,2.27,7.393c.49-.462.935-.969,1.408-1.449C4.629,4.981,5.561,4,6.516,3.037,7.155,2.4,7.783,1.743,8.407,1.088a3.518,3.518,0,0,1,1.155-.8A6.346,6.346,0,0,1,10.494,0Z" transform="translate(0 0)" fill="#323232"/>
      <path id="Path_86517" data-name="Path 86517" d="M34.61,24.337c0,.565,0,1.129,0,1.694a.907.907,0,1,1-1.815-.014q0-1.683,0-3.366a.9.9,0,0,1,.929-.934.879.879,0,0,1,.886.925c0,.565,0,1.129,0,1.694" transform="translate(-22.663 -15.009)" fill="#323232"/>
      <path id="Path_86518" data-name="Path 86518" d="M34.613,45.495a.861.861,0,0,1-.89.869.879.879,0,0,1-.923-.907.892.892,0,0,1,.951-.864.88.88,0,0,1,.862.9" transform="translate(-22.668 -30.818)" fill="#323232"/>
    </g>
  </g>
</svg>
