<svg xmlns="http://www.w3.org/2000/svg" width="25.896" height="25.896" viewBox="0 0 25.896 25.896">
  <g id="Group_166471" data-name="Group 166471" transform="translate(20805 7914)">
    <rect id="Rectangle_148762" data-name="Rectangle 148762" width="25.896" height="25.896" transform="translate(-20805 -7914)" fill="none"/>
    <g id="button" transform="translate(-20803.699 -7911.339)">
      <path id="Path_86677" data-name="Path 86677" d="M20.512,2.723A10.224,10.224,0,0,0,13.076,0H10.159A10.224,10.224,0,0,0,2.723,2.723,10.224,10.224,0,0,0,0,10.159v2.916a10.224,10.224,0,0,0,2.723,7.436,10.224,10.224,0,0,0,7.436,2.723h2.916a10.224,10.224,0,0,0,7.436-2.723,10.224,10.224,0,0,0,2.723-7.436V10.159a10.224,10.224,0,0,0-2.723-7.436Zm1.361,10.353a8.788,8.788,0,0,1-2.324,6.474,8.788,8.788,0,0,1-6.474,2.324H10.159a8.788,8.788,0,0,1-6.474-2.324,8.788,8.788,0,0,1-2.324-6.474V10.159A8.788,8.788,0,0,1,3.686,3.685a8.788,8.788,0,0,1,6.474-2.324h2.916A8.788,8.788,0,0,1,19.55,3.686a8.788,8.788,0,0,1,2.324,6.474Z" fill="#494949"/>
      <path id="Path_86678" data-name="Path 86678" d="M74.425,64.267H71.509a6.529,6.529,0,0,0-7.243,7.243v2.916a6.529,6.529,0,0,0,7.243,7.243h2.917a6.529,6.529,0,0,0,7.243-7.243V71.51a6.529,6.529,0,0,0-7.243-7.243Zm5.881,10.159a5.2,5.2,0,0,1-5.881,5.881H71.509a5.2,5.2,0,0,1-5.881-5.881V71.51a5.2,5.2,0,0,1,5.881-5.881h2.916a5.2,5.2,0,0,1,5.881,5.881Z" transform="translate(-61.35 -61.351)" fill="#494949"/>
      <path id="Path_86679" data-name="Path 86679" d="M275.273,144.6a2.139,2.139,0,1,0,2.139,2.139A2.141,2.141,0,0,0,275.273,144.6Zm0,2.916a.778.778,0,1,1,.778-.778A.778.778,0,0,1,275.273,147.516Z" transform="translate(-260.739 -138.038)" fill="#494949"/>
      <path id="Path_86680" data-name="Path 86680" d="M146.739,273.133a2.139,2.139,0,1,0,2.139,2.139A2.141,2.141,0,0,0,146.739,273.133Zm0,2.917a.778.778,0,1,1,.778-.778A.778.778,0,0,1,146.739,276.049Z" transform="translate(-138.038 -260.738)" fill="#494949"/>
    </g>
  </g>
</svg>
