<svg id="Message-icon-component" xmlns="http://www.w3.org/2000/svg" xmlns:xlink="http://www.w3.org/1999/xlink" width="33.611" height="39.316" viewBox="0 0 33.611 39.316">
  <defs>
    <clipPath id="clip-path">
      <rect id="Rectangle_148774" data-name="Rectangle 148774" width="33.611" height="39.316" fill="#6467e4"/>
    </clipPath>
  </defs>
  <g id="Group_166547" data-name="Group 166547" clip-path="url(#clip-path)">
    <path id="Path_86538" data-name="Path 86538" d="M18.956,0a18.353,18.353,0,0,1,6.4,2.264A16.5,16.5,0,0,1,33.6,16.312,16.71,16.71,0,0,1,20.825,33.053a1.211,1.211,0,0,0-.9.818,12.393,12.393,0,0,1-3.162,4.5,3.084,3.084,0,0,1-5.2-2.945c.114-.544.189-1.1.31-1.64.146-.652-.054-.984-.725-1.233A16.453,16.453,0,0,1,1.2,22.919,16.818,16.818,0,0,1,14.487.1a2.894,2.894,0,0,0,.364-.1Zm11.95,16.753a14.917,14.917,0,0,0-.007-1.594A14.157,14.157,0,1,0,3.727,22.105a13.728,13.728,0,0,0,9.461,8.312c1.221.344,1.406.624,1.42,1.871a15.693,15.693,0,0,1-.373,3.389c-.065.314-.249.685.149.878.373.181.6-.157.834-.378A10.027,10.027,0,0,0,17.8,32.024a1.883,1.883,0,0,1,1.612-1.377A14.063,14.063,0,0,0,30.907,16.753" transform="translate(0 0)" fill="#6467e4"/>
    <path id="Path_86539" data-name="Path 86539" d="M27.914,45.564c-1.8,0-3.592,0-5.388,0a5.657,5.657,0,0,1-.98-.08,1.3,1.3,0,0,1-.03-2.55,5.488,5.488,0,0,1,1.054-.09q5.426-.009,10.853,0a3.744,3.744,0,0,1,1.2.126,1.213,1.213,0,0,1,.9,1.261,1.177,1.177,0,0,1-.939,1.223,4.771,4.771,0,0,1-1.127.113c-1.847.011-3.693.005-5.54.005" transform="translate(-11.166 -23.369)" fill="#6467e4"/>
    <path id="Path_86540" data-name="Path 86540" d="M27.983,24.966c1.976,0,3.952,0,5.928,0,1.028,0,1.613.484,1.607,1.3s-.6,1.347-1.6,1.351c-3.952.016-7.9.008-11.856,0a2.245,2.245,0,0,1-.6-.088,1.28,1.28,0,0,1-1-1.414,1.24,1.24,0,0,1,1.291-1.14c2.077-.019,4.155-.007,6.232-.007Z" transform="translate(-11.158 -13.619)" fill="#6467e4"/>
  </g>
</svg>
