<svg xmlns="http://www.w3.org/2000/svg" width="20" height="19.475" viewBox="0 0 20 19.475">
  <path id="message_1_" data-name="message (1)" d="M18.125,20.315H1.875A1.877,1.877,0,0,1,0,18.44V8.506A3.2,3.2,0,0,1,1.323,6.044L2.5,5.267V4.1A1.877,1.877,0,0,1,4.375,2.229H7.094l1.518-1a2.688,2.688,0,0,1,2.775,0l1.518,1h2.719A1.877,1.877,0,0,1,17.5,4.1V5.267l1.177.778A3.2,3.2,0,0,1,20,8.506V18.44A1.877,1.877,0,0,1,18.125,20.315ZM2.344,19.065H17.725L10.631,13.2a.957.957,0,0,0-1.136,0ZM1.25,10.792v7.553L6.819,13.78Zm11.983,2.941,5.517,4.558V10.824ZM3.75,10.714l4.115,2.208.838-.687a2.2,2.2,0,0,1,2.724,0l.761.629,4.062-2.141V4.1a.626.626,0,0,0-.625-.625H4.375A.626.626,0,0,0,3.75,4.1ZM17.5,6.766v3.3l1.25-.659v-.9a1.993,1.993,0,0,0-.763-1.418ZM1.25,9.373l1.25.671V6.765l-.487.322A2,2,0,0,0,1.25,8.506ZM9.367,2.229h1.266a1.474,1.474,0,0,0-1.266,0Z" transform="translate(0 -0.84)" fill="#8a8888"/>
</svg>
