<svg xmlns="http://www.w3.org/2000/svg" width="19.303" height="19.305" viewBox="0 0 19.303 19.305">
  <g id="quality" transform="translate(-0.002)">
    <g id="Group_167616" data-name="Group 167616" transform="translate(0.001 3.469)">
      <g id="Group_167615" data-name="Group 167615" transform="translate(0)">
        <path id="Path_86693" data-name="Path 86693" d="M18.175,99.352a1.7,1.7,0,0,0-1.7-1.7h-2.52a13.755,13.755,0,0,0,.619-2.606A2.655,2.655,0,0,0,11.953,92a.566.566,0,0,0-.566.566c0,1.366-.785,3.429-1.7,3.888a24.758,24.758,0,0,1-3.465,1.2H.567A.566.566,0,0,0,0,98.221v7.918a.566.566,0,0,0,.566.566h1.7v.566a.566.566,0,0,0,.566.566H5.166a1.7,1.7,0,0,0,1.55-1.009l3.968.992a.567.567,0,0,0,.137.017h3.393a1.7,1.7,0,0,0,1.577-2.322,1.7,1.7,0,0,0,1.131-2.262,1.7,1.7,0,0,0,.817-2.768A1.69,1.69,0,0,0,18.175,99.352ZM2.263,105.574H1.132V98.787H2.263Zm3.469.566a.566.566,0,0,1-.566.566H3.394V98.787H5.732Zm7.352-5.09h3.393a.566.566,0,1,1,0,1.131H13.084a.566.566,0,1,0,0,1.131h2.262a.566.566,0,1,1,0,1.131H13.084a.566.566,0,1,0,0,1.131h1.131a.566.566,0,1,1,0,1.131H10.892L6.863,105.7V98.65a23.179,23.179,0,0,0,3.33-1.185c1.3-.651,2.094-2.711,2.282-4.242a1.525,1.525,0,0,1,.983,1.659,9.143,9.143,0,0,1-.88,3.086.566.566,0,0,0,.506.819h3.393a.566.566,0,1,1,0,1.131H13.084a.566.566,0,0,0,0,1.131Z" transform="translate(-0.001 -92)"/>
      </g>
    </g>
    <g id="Group_167618" data-name="Group 167618" transform="translate(11.953)">
      <g id="Group_167617" data-name="Group 167617">
        <path id="Path_86694" data-name="Path 86694" d="M317.566,0A.566.566,0,0,0,317,.566V1.772a.566.566,0,1,0,1.131,0V.566A.566.566,0,0,0,317.566,0Z" transform="translate(-317)"/>
      </g>
    </g>
    <g id="Group_167620" data-name="Group 167620" transform="translate(7.554 1.898)">
      <g id="Group_167619" data-name="Group 167619">
        <path id="Path_86695" data-name="Path 86695" d="M202.093,51.293l-.8-.8a.566.566,0,0,0-.8.8l.8.8a.566.566,0,1,0,.8-.8Z" transform="translate(-200.328 -50.327)"/>
      </g>
    </g>
    <g id="Group_167622" data-name="Group 167622" transform="translate(5.732 6.297)">
      <g id="Group_167621" data-name="Group 167621">
        <path id="Path_86696" data-name="Path 86696" d="M153.7,167h-1.131a.566.566,0,1,0,0,1.131H153.7a.566.566,0,1,0,0-1.131Z" transform="translate(-151.999 -167)"/>
      </g>
    </g>
    <g id="Group_167624" data-name="Group 167624" transform="translate(17.043 6.297)">
      <g id="Group_167623" data-name="Group 167623">
        <path id="Path_86697" data-name="Path 86697" d="M453.7,167h-1.131a.566.566,0,0,0,0,1.131H453.7a.566.566,0,1,0,0-1.131Z" transform="translate(-452 -167)"/>
      </g>
    </g>
    <g id="Group_167626" data-name="Group 167626" transform="translate(15.553 1.898)">
      <g id="Group_167625" data-name="Group 167625">
        <path id="Path_86698" data-name="Path 86698" d="M414.225,50.493a.566.566,0,0,0-.8,0l-.8.8a.566.566,0,1,0,.8.8l.8-.8A.566.566,0,0,0,414.225,50.493Z" transform="translate(-412.459 -50.327)"/>
      </g>
    </g>
  </g>
</svg>
