<svg xmlns="http://www.w3.org/2000/svg" xmlns:xlink="http://www.w3.org/1999/xlink" width="30" height="30" viewBox="0 0 30 30">
  <defs>
    <clipPath id="clip-path">
      <rect id="Rectangle_148750" data-name="Rectangle 148750" width="21.912" height="21.908" transform="translate(0 0)" fill="#323232"/>
    </clipPath>
  </defs>
  <g id="Group_166477" data-name="Group 166477" transform="translate(20805 7507)">
    <rect id="Rectangle_148766" data-name="Rectangle 148766" width="30" height="30" transform="translate(-20805 -7507)" fill="none"/>
    <g id="Group_166257" data-name="Group 166257" transform="translate(-20800.957 -7502.954)" clip-path="url(#clip-path)">
      <path id="Path_86526" data-name="Path 86526" d="M0,19.055Q0,9.64,0,.224C0,.041.041,0,.225,0Q5.708.009,11.191,0a1.281,1.281,0,0,1,.409.3c.61.611,1.224,1.217,1.828,1.833a.6.6,0,0,0,.473.194c1.311-.007,2.621,0,3.932-.009a1.061,1.061,0,0,1,.822.343Q20.1,4.137,21.573,5.586a1.069,1.069,0,0,1,.339.823c-.009,2.833,0,5.666,0,8.5q0,3.09,0,6.179a.743.743,0,0,1-.817.819c-.334,0-.668,0-1,0H7.876a.756.756,0,0,1-.856-.854c0-.383,0-.765,0-1.148,0-.341,0-.341-.34-.341-1.929,0-3.859-.006-5.788,0A.87.87,0,0,1,0,19.055M8.621,12.11q0,3.93,0,7.862c0,.33,0,.334.322.334H19.979c.322,0,.328-.007.328-.329q0-5.9,0-11.793c0-.344,0-.345-.336-.345H17.358c-.718,0-.959-.244-.959-.971q0-1.306,0-2.612c0-.319-.005-.324-.333-.324h-7.1c-.339,0-.34,0-.34.341q0,3.919,0,7.837m2.741-9.85c-.2-.174-.391-.322-.558-.494a.58.58,0,0,0-.454-.183q-4.224.007-8.447,0c-.31,0-.316.006-.316.316q0,7.873,0,15.746c0,.306.008.313.319.313H6.618c.4,0,.4,0,.4-.4V3.279c0-.7.249-.948.957-.948q1.526,0,3.052,0a.487.487,0,0,0,.333-.069M18,4.359q0,.85,0,1.7a.151.151,0,0,0,.161.173c.574,0,1.148,0,1.717,0L18,4.359" transform="translate(0 0)" fill="#323232"/>
      <path id="Path_86527" data-name="Path 86527" d="M33.289,16.6a.738.738,0,0,1-.231.571c-.781.784-1.56,1.571-2.35,2.347a.765.765,0,0,1-1.136-.011Q28.4,18.35,27.241,17.175a.756.756,0,0,1,0-1.133q1.156-1.175,2.331-2.331a.757.757,0,0,1,1.133-.006c.789.776,1.568,1.563,2.349,2.347a.734.734,0,0,1,.23.547m-1.977-.006a.691.691,0,0,0-.074-.1c-.321-.323-.645-.642-.963-.968-.1-.1-.171-.087-.264.007q-.469.479-.949.948c-.1.095-.1.167,0,.263.32.313.637.628.948.949.107.11.182.1.281-.007.306-.314.62-.622.93-.933a.223.223,0,0,0,.092-.157" transform="translate(-17.636 -8.791)" fill="#323232"/>
      <path id="Path_86528" data-name="Path 86528" d="M29.375,38.516c-.5,0-1.009,0-1.514,0a.747.747,0,0,1-.836-.825q0-1.539,0-3.077a.745.745,0,0,1,.836-.824q1.526,0,3.052,0a.75.75,0,0,1,.836.849q0,1.514,0,3.028a.756.756,0,0,1-.861.849c-.5,0-1.009,0-1.514,0m.014-1.6c.17,0,.341-.006.511,0s.256-.052.252-.237c-.008-.357,0-.714,0-1.071,0-.154-.062-.222-.218-.22-.365,0-.73,0-1.1,0-.138,0-.214.052-.213.2q0,.56,0,1.12c0,.142.061.21.2.207.187,0,.373,0,.56,0" transform="translate(-17.659 -22.081)" fill="#323232"/>
      <path id="Path_86529" data-name="Path 86529" d="M41.455,47.547c-.765,0-1.53-.008-2.294,0a.867.867,0,0,1-.821-.512.733.733,0,0,1,.125-.821c.758-1.018,1.515-2.037,2.285-3.045a.826.826,0,0,1,1.373.037c.675.9,1.341,1.8,2.011,2.7a2.453,2.453,0,0,0,.211.268.8.8,0,0,1,.15.926.718.718,0,0,1-.746.443c-.765,0-1.53,0-2.295,0m-.048-1.6c.178,0,.357,0,.535,0,.151,0,.176-.05.083-.168-.165-.211-.331-.421-.489-.637-.1-.13-.162-.09-.24.015-.145.2-.3.386-.443.58-.037.05-.113.1-.083.164.037.082.13.042.2.044.146.006.292,0,.438,0" transform="translate(-25.003 -27.984)" fill="#323232"/>
      <path id="Path_86530" data-name="Path 86530" d="M42.815,29.368a2.363,2.363,0,1,1,2.335,2.385,2.3,2.3,0,0,1-2.335-2.385m2.344.78a.759.759,0,1,0-.739-.778.75.75,0,0,0,.739.778" transform="translate(-27.979 -17.662)" fill="#323232"/>
      <path id="Path_86531" data-name="Path 86531" d="M8.685,10.668c-.391,0-.781,0-1.172,0a.736.736,0,0,1-.789-.8q-.006-1.172,0-2.344a.738.738,0,0,1,.809-.8q1.16-.005,2.32,0a.742.742,0,0,1,.814.822q.005,1.148,0,2.3a.748.748,0,0,1-.834.826c-.383,0-.765,0-1.148,0m.01-1.6c.372,0,.372,0,.372-.353,0-.39,0-.39-.359-.391-.384,0-.384,0-.385.366s0,.378.372.378" transform="translate(-4.392 -4.392)" fill="#323232"/>
      <path id="Path_86532" data-name="Path 86532" d="M10.669,24.5c0,.383,0,.765,0,1.148a.74.74,0,0,1-.8.811q-1.172.006-2.344,0a.738.738,0,0,1-.8-.812q-.005-1.16,0-2.32a.738.738,0,0,1,.8-.811q1.173-.006,2.345,0a.739.739,0,0,1,.8.812c0,.391,0,.781,0,1.172m-1.971.36c.37,0,.37,0,.371-.355,0-.389,0-.389-.361-.389-.383,0-.383,0-.383.367s0,.377.373.377" transform="translate(-4.393 -14.71)" fill="#323232"/>
      <path id="Path_86533" data-name="Path 86533" d="M10.672,40.3A1.972,1.972,0,1,1,8.716,38.3,1.933,1.933,0,0,1,10.672,40.3M8.7,39.917a.359.359,0,1,0,.358.353.36.36,0,0,0-.358-.353" transform="translate(-4.397 -25.031)" fill="#323232"/>
    </g>
  </g>
</svg>
