<svg id="Component_39_34" data-name="Component 39 – 34" xmlns="http://www.w3.org/2000/svg" width="36" height="36" viewBox="0 0 36 36">
  <rect id="Rectangle_1026" data-name="Rectangle 1026" width="36" height="36" fill="none"/>
  <g id="Group_165230" data-name="Group 165230" transform="translate(-313.418 -704.271)">
    <g id="Group_165229" data-name="Group 165229" transform="translate(329.529 716.975)">
      <path id="Path_85522" data-name="Path 85522" d="M331.651,725.04a1.059,1.059,0,0,1,.3-.474q1.254-1.246,2.5-2.5c.07-.07.07-.07,0-.142q-1.272-1.272-2.544-2.545a.757.757,0,1,1,1.062-1.078l2.552,2.537c.091.09.071.087.158,0q1.259-1.258,2.517-2.517a.756.756,0,0,1,1.083,1.056l-2.545,2.545c-.035.035-.07.058-.013.115q1.03,1.018,2.055,2.039c.19.189.38.376.568.568a.722.722,0,0,1,.185.747.672.672,0,0,1-.565.507.842.842,0,0,1-.779-.237q-1.257-1.265-2.521-2.524c-.072-.072-.072-.072-.146,0-.845.844-1.693,1.685-2.532,2.536a.9.9,0,0,1-1.014.135.723.723,0,0,1-.326-.477Z" transform="translate(-331.651 -718.079)" fill="#ff2626"/>
    </g>
    <path id="Path_85523" data-name="Path 85523" d="M320.989,721.205a1.089,1.089,0,0,1,1.543-.779,1.032,1.032,0,0,1,.6.952c.01.113,0,.227,0,.34v10.711c0,.36,0,.361.36.361h10.784a2.679,2.679,0,0,1,.34.01,1.021,1.021,0,0,1,.981,1,1.046,1.046,0,0,1-.812,1.117c-.023.007-.045.019-.067.029H322.889a3.444,3.444,0,0,1-.65-.191,2.164,2.164,0,0,1-1.25-1.709Z" transform="translate(0 -1.552)" fill="#ff2626"/>
    <path id="Path_85524" data-name="Path 85524" d="M334.513,729.219q-3.106,0-6.211,0a2.065,2.065,0,0,1-2.106-2.113c0-4.123.018-8.248-.014-12.371a2.174,2.174,0,0,1,2.2-2.2h6.5c1.924,0,3.848,0,5.772,0a2.126,2.126,0,0,1,2.153,1.629,2.606,2.606,0,0,1,.074.626q0,6.1,0,12.2a2.083,2.083,0,0,1-2.159,2.228Q337.617,729.22,334.513,729.219Zm-6.192-8.321q0,2.934,0,5.868c0,.326,0,.327.316.327H340.4c.322,0,.324,0,.324-.322q0-5.88,0-11.761c0-.239-.058-.323-.312-.323q-5.892.012-11.785,0c-.249,0-.315.073-.314.317C328.326,716.97,328.322,718.934,328.322,720.9Z" transform="translate(-1.034 0)" fill="#ff2626"/>
  </g>
</svg>
