<svg xmlns="http://www.w3.org/2000/svg" xmlns:xlink="http://www.w3.org/1999/xlink" width="30" height="30" viewBox="0 0 30 30">
  <defs>
    <clipPath id="clip-path">
      <rect id="Rectangle_148749" data-name="Rectangle 148749" width="19.249" height="20.841" fill="#323232"/>
    </clipPath>
  </defs>
  <g id="Group_166476" data-name="Group 166476" transform="translate(20805 7576)">
    <rect id="Rectangle_148765" data-name="Rectangle 148765" width="30" height="30" transform="translate(-20805 -7576)" fill="none"/>
    <g id="Group_166256" data-name="Group 166256" transform="translate(-20799.625 -7571.42)">
      <g id="Group_166255" data-name="Group 166255" transform="translate(0 0)" clip-path="url(#clip-path)">
        <path id="Path_86519" data-name="Path 86519" d="M0,20.219Q0,10.211,0,.2C0,.036.033,0,.2,0q9.241.008,18.48,0A.849.849,0,0,1,19.249.9q0,2.787,0,5.574,0,6.666,0,13.332c0,.822-.214,1.039-1.024,1.039H.876A.747.747,0,0,1,0,20.219m1.547-9.811v8.55c0,.36,0,.36.359.36H17.334c.359,0,.359,0,.359-.36V1.858c0-.348,0-.349-.347-.349H1.9c-.347,0-.347,0-.348.349v8.55" transform="translate(0 0)" fill="#323232"/>
        <path id="Path_86520" data-name="Path 86520" d="M11.439,47.407a.7.7,0,0,1-.6-.269c-.489-.56-.979-1.119-1.461-1.684a.727.727,0,0,1,.039-.993.7.7,0,0,1,.924-.141,2.016,2.016,0,0,1,.479.468c.18.2.363.4.531.615.114.144.189.124.308,0,.706-.738,1.421-1.469,2.132-2.2a.8.8,0,0,1,.61-.287.74.74,0,0,1,.661.4.7.7,0,0,1-.028.768,1.092,1.092,0,0,1-.147.179q-1.46,1.463-2.922,2.924a.633.633,0,0,1-.529.223" transform="translate(-6.336 -29.543)" fill="#323232"/>
        <path id="Path_86521" data-name="Path 86521" d="M9.943,10.535a.933.933,0,0,1,.657.337c.25.285.5.569.743.862.115.14.193.131.312.006.7-.733,1.409-1.46,2.115-2.188a.774.774,0,0,1,.83-.277.749.749,0,0,1,.346,1.246c-1.008,1.029-2.029,2.045-3.054,3.056a.7.7,0,0,1-1.034-.088c-.4-.435-.776-.885-1.163-1.328-.122-.14-.249-.277-.361-.424a.673.673,0,0,1-.038-.765.737.737,0,0,1,.647-.436" transform="translate(-6.33 -6.361)" fill="#323232"/>
        <path id="Path_86522" data-name="Path 86522" d="M9.2,28.024A.823.823,0,0,1,9.7,27.3a.728.728,0,0,1,.844.22c.269.277.513.579.767.871.189.218.19.22.385.018q1-1.034,2-2.069a2.055,2.055,0,0,1,.273-.251A.759.759,0,0,1,15,27.179a1.533,1.533,0,0,1-.126.137q-1.428,1.43-2.858,2.859a.738.738,0,0,1-1.2-.035c-.479-.538-.947-1.085-1.419-1.628a.676.676,0,0,1-.189-.487" transform="translate(-6.335 -17.861)" fill="#323232"/>
        <path id="Path_86523" data-name="Path 86523" d="M34.189,13.988c.858,0,1.717-.007,2.575,0a.775.775,0,1,1-.032,1.548c-.495.009-.989,0-1.485,0H31.814a2.157,2.157,0,0,1-.324-.017.718.718,0,0,1-.661-.825.707.707,0,0,1,.738-.707c.564-.015,1.129-.005,1.694-.006h.928Z" transform="translate(-21.224 -9.628)" fill="#323232"/>
        <path id="Path_86524" data-name="Path 86524" d="M34.168,49.417c-.858,0-1.717.007-2.575,0a.757.757,0,0,1-.771-.985.749.749,0,0,1,.8-.564c.549-.008,1.1,0,1.647,0h3.294a1.7,1.7,0,0,1,.414.039.7.7,0,0,1,.548.711.71.71,0,0,1-.512.762,1.309,1.309,0,0,1-.39.044H34.168Z" transform="translate(-21.2 -32.95)" fill="#323232"/>
        <path id="Path_86525" data-name="Path 86525" d="M34.18,32.5c-.851,0-1.7,0-2.555,0a.761.761,0,1,1,0-1.521q2.567,0,5.133,0a.761.761,0,1,1,0,1.521c-.859,0-1.719,0-2.578,0" transform="translate(-21.223 -21.328)" fill="#323232"/>
      </g>
    </g>
  </g>
</svg>
