<svg xmlns="http://www.w3.org/2000/svg" xmlns:xlink="http://www.w3.org/1999/xlink" width="25.896" height="25.896" viewBox="0 0 25.896 25.896">
  <defs>
    <clipPath id="clip-path">
      <rect id="Rectangle_148834" data-name="Rectangle 148834" width="22.494" height="19.5" fill="#242425"/>
    </clipPath>
  </defs>
  <g id="Group_166471" data-name="Group 166471" transform="translate(20805 7914)">
    <g id="Group_166774" data-name="Group 166774" transform="translate(-20803.5 -7910.803)">
      <g id="Group_166774-2" data-name="Group 166774" transform="translate(0 0)" clip-path="url(#clip-path)">
        <path id="Path_86615" data-name="Path 86615" d="M14.79,28.862a14.413,14.413,0,0,1-1.785-.357,9.653,9.653,0,0,1-4.181-2.479A.77.77,0,0,1,8.8,24.932a.762.762,0,0,1,1.127.018,7.893,7.893,0,0,0,2.983,1.884,8.052,8.052,0,0,0,8.176-1.5A7.889,7.889,0,0,0,23.7,21.1c.019-.074.032-.15.055-.257a1.96,1.96,0,0,1-.4.159.77.77,0,0,1-.726-1.248,4.572,4.572,0,0,1,.323-.338c.4-.4.789-.8,1.193-1.19a.782.782,0,0,1,1.152,0c.487.472.961.958,1.442,1.437a1.307,1.307,0,0,1,.232.349v.468a.823.823,0,0,1-.544.508.952.952,0,0,1-.986-.424.375.375,0,0,0-.091.219,9.669,9.669,0,0,1-6.764,7.672,11.452,11.452,0,0,1-1.966.405Z" transform="translate(-4.472 -9.362)" fill="#242425"/>
        <path id="Path_86616" data-name="Path 86616" d="M18.037,16.123a18.541,18.541,0,0,0-1.878.027,1.454,1.454,0,0,0-1.34,1.532c-.008.461,0,.921,0,1.381a.748.748,0,0,1-.756.8.758.758,0,0,1-.774-.812c0-.484-.006-.968,0-1.451a2.934,2.934,0,0,1,1.73-2.728c.209-.107.207-.163.08-.342a3.768,3.768,0,1,1,6.84-2.206A3.667,3.667,0,0,1,21.2,14.6c-.107.143-.064.178.07.245A2.971,2.971,0,0,1,23.06,17.7c0,.461,0,.921,0,1.381a.745.745,0,0,1-.775.784.754.754,0,0,1-.754-.784c0-.461,0-.921,0-1.381a1.5,1.5,0,0,0-1.577-1.578c-.593-.006-1.186,0-1.913,0M20.4,12.383a2.229,2.229,0,1,0-2.246,2.2,2.259,2.259,0,0,0,2.246-2.2" transform="translate(-6.918 -4.471)" fill="#242425"/>
        <path id="Path_86617" data-name="Path 86617" d="M2.262,10.524a.661.661,0,0,1-.557-.216C1.212,9.819.72,9.328.236,8.83a.766.766,0,0,1-.15-.907.773.773,0,0,1,.774-.417.956.956,0,0,1,.577.328c.051.053.1.154.179.127s.062-.132.078-.207A9.719,9.719,0,0,1,9.714.127,9.554,9.554,0,0,1,18.09,2.794a.759.759,0,0,1,.178.993.777.777,0,0,1-1.227.139,8.647,8.647,0,0,0-1.815-1.352,8.026,8.026,0,0,0-3.5-1A8.071,8.071,0,0,0,5.352,4.053,7.957,7.957,0,0,0,3.4,7.343c-.058.187-.054.253.175.184a.746.746,0,0,1,.843.356.77.77,0,0,1-.129.948c-.384.4-.782.785-1.173,1.177-.093.094-.183.193-.278.284a.682.682,0,0,1-.577.231" transform="translate(0 0)" fill="#242425"/>
      </g>
    </g>
    <rect id="Rectangle_148762" data-name="Rectangle 148762" width="25.896" height="25.896" transform="translate(-20805 -7914)" fill="none"/>
  </g>
</svg>
