<svg xmlns="http://www.w3.org/2000/svg" xmlns:xlink="http://www.w3.org/1999/xlink" width="17.12" height="20.026" viewBox="0 0 17.12 20.026">
  <defs>
    <clipPath id="clip-path">
      <rect id="Rectangle_148774" data-name="Rectangle 148774" width="17.12" height="20.026" fill="#6467e4"/>
    </clipPath>
  </defs>
  <g id="Group_166547" data-name="Group 166547" transform="translate(0 0)">
    <g id="Group_166547-2" data-name="Group 166547" transform="translate(0 0)" clip-path="url(#clip-path)">
      <path id="Path_86538" data-name="Path 86538" d="M9.656,0a9.348,9.348,0,0,1,3.261,1.153,8.4,8.4,0,0,1,4.2,7.156,8.511,8.511,0,0,1-6.507,8.527.617.617,0,0,0-.458.416,6.313,6.313,0,0,1-1.61,2.293,1.571,1.571,0,0,1-2.648-1.5c.058-.277.1-.559.158-.835.074-.332-.027-.5-.369-.628A8.38,8.38,0,0,1,.611,11.674,8.567,8.567,0,0,1,7.379.05,1.474,1.474,0,0,0,7.564,0Zm6.087,8.533a7.6,7.6,0,0,0,0-.812A7.211,7.211,0,1,0,1.9,11.26a6.993,6.993,0,0,0,4.819,4.234c.622.175.716.318.723.953a7.994,7.994,0,0,1-.19,1.726c-.033.16-.127.349.076.447s.306-.08.425-.192a5.107,5.107,0,0,0,1.315-2.116.959.959,0,0,1,.821-.7,7.163,7.163,0,0,0,5.855-7.077" transform="translate(0 0)" fill="#6467e4"/>
      <path id="Path_86539" data-name="Path 86539" d="M24.261,44.226c-.915,0-1.83,0-2.745,0a2.882,2.882,0,0,1-.5-.041.66.66,0,0,1-.016-1.3,2.8,2.8,0,0,1,.537-.046q2.764,0,5.528,0a1.907,1.907,0,0,1,.613.064.618.618,0,0,1,.456.642.6.6,0,0,1-.478.623,2.43,2.43,0,0,1-.574.057c-.941.006-1.881,0-2.822,0" transform="translate(-15.73 -32.92)" fill="#6467e4"/>
      <path id="Path_86540" data-name="Path 86540" d="M24.289,24.966c1.006,0,2.013,0,3.019,0,.524,0,.822.247.819.661s-.3.686-.817.688c-2.013.008-4.026,0-6.039,0a1.144,1.144,0,0,1-.3-.045.652.652,0,0,1-.509-.72.632.632,0,0,1,.657-.581c1.058-.01,2.116,0,3.174,0Z" transform="translate(-15.718 -19.186)" fill="#6467e4"/>
    </g>
  </g>
</svg>
