<svg xmlns="http://www.w3.org/2000/svg" xmlns:xlink="http://www.w3.org/1999/xlink" width="30" height="30" viewBox="0 0 30 30">
  <defs>
    <clipPath id="clip-path">
      <rect id="Rectangle_148747" data-name="Rectangle 148747" width="24" height="26.582" fill="#242424" stroke="#242425" stroke-width="0.5"/>
    </clipPath>
  </defs>
  <g id="Group_166472" data-name="Group 166472" transform="translate(20805 7848)">
    <rect id="Rectangle_148761" data-name="Rectangle 148761" width="30" height="30" transform="translate(-20805 -7848)" fill="none"/>
    <g id="Group_166249" data-name="Group 166249" transform="translate(-20802 -7846.291)">
      <g id="Group_166248" data-name="Group 166248" transform="translate(0 0)" clip-path="url(#clip-path)">
        <path id="Path_86514" data-name="Path 86514" d="M9.958,23.235A1.9,1.9,0,0,1,8.564,22a1.639,1.639,0,0,1-.054-.98.235.235,0,0,0-.13-.312q-2.475-1.422-4.944-2.854a.241.241,0,0,0-.335.032,1.849,1.849,0,1,1-1.856-3.108.3.3,0,0,0,.237-.343q-.007-2.8,0-5.6a.319.319,0,0,0-.253-.357A1.839,1.839,0,0,1,.032,6.4a1.867,1.867,0,0,1,1.81-1.522A1.762,1.762,0,0,1,3.1,5.371a.235.235,0,0,0,.334.043Q5.91,3.976,8.394,2.549c.145-.083.141-.178.114-.32A1.85,1.85,0,0,1,11.538.461a1.77,1.77,0,0,1,.59,1.778.256.256,0,0,0,.148.325q2.455,1.412,4.9,2.834a.285.285,0,0,0,.391-.048A1.783,1.783,0,0,1,19.6,5.076a1.8,1.8,0,0,1,1.025,1.838A1.748,1.748,0,0,1,19.44,8.463a.365.365,0,0,0-.286.4q.014,2.764,0,5.529a.349.349,0,0,0,.269.391,1.78,1.78,0,0,1,1.2,1.562,1.149,1.149,0,0,0,.029.132v.046c-.01.052-.024.1-.03.155a1.77,1.77,0,0,1-1.194,1.567,1.749,1.749,0,0,1-1.877-.354.255.255,0,0,0-.352-.044q-2.468,1.433-4.942,2.855a.241.241,0,0,0-.13.312,1.8,1.8,0,0,1-.456,1.655,2.009,2.009,0,0,1-.99.564Zm8.462-11.6c0-.944,0-1.888,0-2.833A.263.263,0,0,0,18.2,8.5a1.506,1.506,0,0,1-.676-.4.213.213,0,0,0-.312-.036c-.288.18-.585.346-.882.512a.374.374,0,0,1-.554-.1c-.11-.188-.043-.389.189-.527q.447-.268.9-.522a.19.19,0,0,0,.111-.254,1.529,1.529,0,0,1,0-.85c.04-.141-.013-.206-.125-.27q-2.5-1.443-5-2.891a.177.177,0,0,0-.256.029,1.569,1.569,0,0,1-.732.434.214.214,0,0,0-.176.246c.007.332,0,.665,0,1a.446.446,0,0,1-.139.369.328.328,0,0,1-.358.064.382.382,0,0,1-.241-.377q-.01-.521,0-1.042c0-.129-.028-.216-.166-.253a1.648,1.648,0,0,1-.752-.444A.164.164,0,0,0,8.8,3.155c-.18.11-.365.212-.549.318Q6.04,4.748,3.832,6.02a.272.272,0,0,0-.162.359,1.361,1.361,0,0,1-.006.761.214.214,0,0,0,.117.293c.3.163.591.335.883.509.234.14.3.336.2.528s-.325.235-.572.1c-.3-.167-.591-.335-.882-.511-.1-.063-.181-.081-.275.02A1.588,1.588,0,0,1,2.4,8.51a.217.217,0,0,0-.182.241q.005,2.878,0,5.756c0,.122.033.2.159.234a1.717,1.717,0,0,1,.757.437.2.2,0,0,0,.278.023c.29-.177.586-.344.882-.512.235-.133.447-.1.558.086s.043.4-.2.546q-.438.26-.882.51c-.1.059-.156.118-.116.251a1.55,1.55,0,0,1,0,.851.209.209,0,0,0,.116.275q2.5,1.44,5,2.888a.19.19,0,0,0,.273-.038,1.515,1.515,0,0,1,.694-.412.247.247,0,0,0,.2-.294c-.009-.317-.006-.635,0-.952,0-.293.157-.476.38-.468s.355.184.359.467c0,.31.01.62,0,.929-.007.177.039.277.226.325a1.334,1.334,0,0,1,.653.391c.112.121.2.11.331.031.341-.208.691-.4,1.038-.6q1.952-1.126,3.906-2.25a.233.233,0,0,0,.134-.309,1.5,1.5,0,0,1,.007-.828.189.189,0,0,0-.113-.253c-.3-.17-.6-.343-.9-.522a.368.368,0,1,1,.375-.622c.3.171.6.343.9.523a.179.179,0,0,0,.256-.027,1.547,1.547,0,0,1,.69-.419.271.271,0,0,0,.233-.319c-.009-.937,0-1.873,0-2.81M17.669,6.73a1.1,1.1,0,0,0,1.106,1.127,1.124,1.124,0,0,0,1.137-1.109,1.144,1.144,0,0,0-1.12-1.134A1.111,1.111,0,0,0,17.669,6.73m-14.7.014A1.111,1.111,0,0,0,1.861,5.614,1.144,1.144,0,0,0,.728,6.735,1.123,1.123,0,0,0,1.851,7.857a1.1,1.1,0,0,0,1.12-1.114m0,9.786a1.1,1.1,0,0,0-1.1-1.129A1.117,1.117,0,0,0,.728,16.507a1.145,1.145,0,0,0,1.117,1.137A1.112,1.112,0,0,0,2.972,16.53m14.7-.019a1.113,1.113,0,0,0,1.107,1.134,1.146,1.146,0,0,0,1.137-1.119,1.117,1.117,0,0,0-1.12-1.124,1.1,1.1,0,0,0-1.123,1.109m-7.345,3.781A1.1,1.1,0,0,0,9.2,21.4a1.121,1.121,0,1,0,2.242.008,1.1,1.1,0,0,0-1.117-1.117m0-17.324a1.1,1.1,0,0,0,1.113-1.122A1.121,1.121,0,1,0,9.2,1.862a1.1,1.1,0,0,0,1.129,1.105" transform="translate(1.673 1.673)" fill="#242424" stroke="#242425" stroke-width="0.5"/>
        <path id="Path_86515" data-name="Path 86515" d="M17.108,17.349a2.129,2.129,0,0,1,1.878,1.217c.064.126.134.145.269.167.413.069.6-.128.814-.458a2.093,2.093,0,0,1,2.994-.507,2.118,2.118,0,0,1,.444,3c-.131.172-.131.247.051.376a3,3,0,0,1,1.273,2.2,1.056,1.056,0,0,1,0,.294.336.336,0,0,1-.329.316.331.331,0,0,1-.377-.284c-.036-.184-.036-.376-.077-.559a2.269,2.269,0,0,0-1.224-1.571.4.4,0,0,0-.344-.033,1.782,1.782,0,0,1-.89.1.176.176,0,0,0-.212.123,1.691,1.691,0,0,1-.3.478c-.1.109-.069.169.043.246a3.071,3.071,0,0,1,1.347,2.355c.023.258-.068.444-.252.5-.261.083-.463-.1-.483-.434a2.293,2.293,0,0,0-.954-1.773c-.078-.059-.165-.105-.249-.157a.5.5,0,0,0-.468-.057,1.928,1.928,0,0,1-1.289-.009.4.4,0,0,0-.345.016,2.29,2.29,0,0,0-1.292,1.943c0,.03,0,.061,0,.091-.02.249-.165.4-.378.4a.375.375,0,0,1-.358-.436,3.129,3.129,0,0,1,.349-1.325,2.958,2.958,0,0,1,.988-1.1c.138-.091.15-.16.039-.279a1.628,1.628,0,0,1-.286-.46.175.175,0,0,0-.214-.117,1.811,1.811,0,0,1-.89-.1.378.378,0,0,0-.323.027,2.267,2.267,0,0,0-1.287,1.92,1.333,1.333,0,0,1-.023.2.348.348,0,0,1-.389.3.341.341,0,0,1-.325-.346,2.281,2.281,0,0,1,.111-.826,2.945,2.945,0,0,1,1.17-1.648c.171-.118.183-.188.057-.359a2.021,2.021,0,0,1-.222-2.22,2.1,2.1,0,0,1,1.956-1.208m2.334,2.112a1.37,1.37,0,0,0-1.4,1.38,1.4,1.4,0,1,0,2.793.015,1.37,1.37,0,0,0-1.389-1.4m-3.77.016a1.386,1.386,0,0,0,1.348,1.418c.181,0,.267-.036.289-.241a2.06,2.06,0,0,1,.893-1.533c.157-.109.16-.2.071-.348a1.427,1.427,0,0,0-1.565-.642,1.374,1.374,0,0,0-1.037,1.346m6.14-1.382a1.367,1.367,0,0,0-1.231.708.183.183,0,0,0,.06.3,2.094,2.094,0,0,1,.921,1.566c.021.2.106.232.276.229A1.392,1.392,0,0,0,23.2,19.488,1.363,1.363,0,0,0,21.812,18.1" transform="translate(-7.442 -8.05)" fill="#242424" stroke="#242425" stroke-width="0.5"/>
      </g>
    </g>
  </g>
</svg>
