<svg xmlns="http://www.w3.org/2000/svg" xmlns:xlink="http://www.w3.org/1999/xlink" width="30" height="30" viewBox="0 0 30 30">
  <defs>
    <clipPath id="clip-path">
      <rect id="Rectangle_148777" data-name="Rectangle 148777" width="24.271" height="24.283" fill="#323232"/>
    </clipPath>
  </defs>
  <g id="Group_166477" data-name="Group 166477" transform="translate(20805 7507)">
    <rect id="Rectangle_148766" data-name="Rectangle 148766" width="30" height="30" transform="translate(-20805 -7507)" fill="none"/>
    <g id="Group_166566" data-name="Group 166566" transform="translate(-20826 -8422.5)">
      <g id="Group_166567" data-name="Group 166567" transform="translate(26 918.358)">
        <g id="Group_166566-2" data-name="Group 166566" transform="translate(0 0)" clip-path="url(#clip-path)">
          <path id="Path_86541" data-name="Path 86541" d="M15.78,0a3.4,3.4,0,0,1,1.767.759,3.057,3.057,0,0,1,1.091,2.287c.024.756.009,1.513,0,2.269a.878.878,0,1,1-1.754.017c-.014-.7,0-1.407-.005-2.11A1.358,1.358,0,0,0,15.42,1.756q-5.87,0-11.741,0A1.835,1.835,0,0,0,1.756,3.683q0,8.786,0,17.572a1.165,1.165,0,0,0,1.264,1.267q5.962,0,11.925,0a1.827,1.827,0,0,0,1.937-1.8.921.921,0,0,1,.91-.934.9.9,0,0,1,.849,1.011,3.616,3.616,0,0,1-3.189,3.45,7.445,7.445,0,0,1-.763.036q-5.8,0-11.609,0A2.936,2.936,0,0,1,.37,22.76,3.5,3.5,0,0,1,0,21.586V3.325c.012-.051.028-.1.036-.152A3.562,3.562,0,0,1,2.138.318,4.33,4.33,0,0,1,3.325,0Z" transform="translate(0 0)" fill="#323232"/>
          <path id="Path_86542" data-name="Path 86542" d="M46.658,24.059a5.94,5.94,0,1,1-5.952,5.912,5.924,5.924,0,0,1,5.952-5.912m-4.191,5.922a4.186,4.186,0,1,0,4.208-4.161,4.173,4.173,0,0,0-4.208,4.161" transform="translate(-28.317 -16.736)" fill="#323232"/>
          <path id="Path_86543" data-name="Path 86543" d="M17.505,57.347c1.2,0,2.392,0,3.588,0a.877.877,0,1,1,.089,1.751c-.14.014-.281.007-.422.007q-3.325,0-6.649,0a2.278,2.278,0,0,1-.368-.02.871.871,0,0,1,.12-1.737c.659-.008,1.319,0,1.979,0h1.662" transform="translate(-9.019 -39.891)" fill="#323232"/>
          <path id="Path_86544" data-name="Path 86544" d="M22.193,18.388c-.932,0-1.865.005-2.8,0a.87.87,0,0,1-.369-1.664,1.123,1.123,0,0,1,.462-.092q2.718,0,5.435,0a.906.906,0,0,1,.919.615.872.872,0,0,1-.313.965.981.981,0,0,1-.621.179c-.906,0-1.812,0-2.718,0Z" transform="translate(-12.878 -11.568)" fill="#323232"/>
          <path id="Path_86545" data-name="Path 86545" d="M16.618,46.133c-.923,0-1.847.005-2.77,0a.87.87,0,0,1-.368-1.664,1.128,1.128,0,0,1,.462-.092q2.718,0,5.435,0a.906.906,0,0,1,.919.616.872.872,0,0,1-.313.965.983.983,0,0,1-.621.178c-.915,0-1.829,0-2.744,0Z" transform="translate(-9.018 -30.868)" fill="#323232"/>
          <path id="Path_86546" data-name="Path 86546" d="M16.649,33.223c-.914,0-1.828,0-2.742,0a.866.866,0,1,1,.011-1.724q2.742,0,5.483,0a.865.865,0,1,1-.011,1.724c-.914,0-1.828,0-2.742,0" transform="translate(-9.021 -21.911)" fill="#323232"/>
          <path id="Path_86547" data-name="Path 86547" d="M53.887,41.023a.929.929,0,0,1-.637-.3c-.39-.405-.783-.807-1.163-1.222a.868.868,0,0,1-.005-1.273.88.88,0,0,1,1.272.068,4.128,4.128,0,0,1,.358.387c.133.17.231.182.387.011.432-.473.882-.931,1.327-1.393a.842.842,0,0,1,.919-.225.824.824,0,0,1,.579.746.835.835,0,0,1-.253.695q-1.043,1.1-2.091,2.194a.939.939,0,0,1-.693.311" transform="translate(-36.039 -25.757)" fill="#323232"/>
        </g>
      </g>
    </g>
  </g>
</svg>
