<svg xmlns="http://www.w3.org/2000/svg" width="18.646" height="16.781" viewBox="0 0 18.646 16.781">
  <path id="unread-message" d="M20.646,8.507v8.409a1.87,1.87,0,0,1-1.865,1.865H3.865A1.87,1.87,0,0,1,2,16.917L2.009,5.729A1.862,1.862,0,0,1,3.865,3.865h9.416a5.1,5.1,0,0,0-.093.932,5.1,5.1,0,0,0,.093.932H3.865l7.458,4.661,3.422-2.135a4.5,4.5,0,0,0,1.52.914l-4.941,3.086L3.865,7.594v9.323H18.781V9.365A4.617,4.617,0,0,0,20.646,8.507ZM15.052,4.8a2.8,2.8,0,1,0,2.8-2.8A2.793,2.793,0,0,0,15.052,4.8Z" transform="translate(-2 -2)"/>
</svg>
