<svg xmlns="http://www.w3.org/2000/svg" width="14.144" height="17.355" viewBox="0 0 14.144 17.355">
  <g id="Group_167527" data-name="Group 167527" transform="translate(21970.385 2349.65)">
    <path id="path2625" d="M0,0V2.783A1.342,1.342,0,0,0,1.338,4.121H4.121" transform="translate(-21961.172 -2348.839)" fill="none" stroke="#494949" stroke-linecap="round" stroke-linejoin="round" stroke-width="1.3"/>
    <path id="path2629" d="M-334.191,0h-7.225a1.342,1.342,0,0,0-1.338,1.338V14.717a1.342,1.342,0,0,0,1.338,1.338h10.168a1.342,1.342,0,0,0,1.338-1.338V4.281Z" transform="translate(-21626.98 -2349)" fill="none" stroke="#494949" stroke-linecap="round" stroke-linejoin="round" stroke-width="1.3"/>
    <path id="path2633" d="M-292.418-146.21a3.746,3.746,0,0,1-3.746,3.746,3.746,3.746,0,0,1-3.746-3.746,3.746,3.746,0,0,1,3.746-3.746A3.746,3.746,0,0,1-292.418-146.21Z" transform="translate(-21667.148 -2192.623)" fill="none" stroke="#494949" stroke-linecap="round" stroke-linejoin="round" stroke-width="1.3"/>
    <path id="path2637" d="M0,0,2.27,2.27" transform="translate(-21964.447 -2339.967)" fill="none" stroke="#494949" stroke-linecap="round" stroke-linejoin="round" stroke-width="1.3"/>
    <path id="path2641" d="M-88.616,0l-2.27,2.27" transform="translate(-21873.561 -2339.967)" fill="none" stroke="#494949" stroke-linecap="round" stroke-linejoin="round" stroke-width="1.3"/>
  </g>
</svg>
