<svg xmlns="http://www.w3.org/2000/svg" xmlns:xlink="http://www.w3.org/1999/xlink" width="30" height="30" viewBox="0 0 30 30">
  <defs>
    <clipPath id="clip-path">
      <rect id="Rectangle_148746" data-name="Rectangle 148746" width="24" height="19.948" transform="translate(0 0)" fill="#323232"/>
    </clipPath>
  </defs>
  <g id="Group_166471" data-name="Group 166471" transform="translate(20805 7914)">
    <rect id="Rectangle_148762" data-name="Rectangle 148762" width="30" height="30" transform="translate(-20805 -7914)" fill="none"/>
    <g id="Group_166246" data-name="Group 166246" transform="translate(-20802 -7908.974)" clip-path="url(#clip-path)">
      <path id="Path_86510" data-name="Path 86510" d="M0,28.517a3.8,3.8,0,0,1,.8-1.744A3.456,3.456,0,0,1,3.466,25.51c.8-.013,1.592,0,2.388,0a2.477,2.477,0,0,1,.673.071.283.283,0,0,0,.366-.151A3.458,3.458,0,0,1,9.3,23.764a4.639,4.639,0,0,1,.838-.072c1.225,0,2.451,0,3.676,0a3.593,3.593,0,0,1,3.3,1.769.223.223,0,0,0,.267.132,4.8,4.8,0,0,1,1.257-.085c.64,0,1.28-.006,1.92,0a3.521,3.521,0,0,1,3.439,3.449q.012,1.919,0,3.839a2.1,2.1,0,0,1-1.948,2.109c-.218.021-.435.029-.654.029H2.378a2.4,2.4,0,0,1-1.707-.578A2.455,2.455,0,0,1,0,33.2Zm11.988,4.95c1.288,0,2.576,0,3.863,0,.215,0,.3-.045.3-.282-.009-1.958,0-3.916-.007-5.875a2.084,2.084,0,0,0-2.161-2.154q-1.991-.009-3.98,0a2.086,2.086,0,0,0-2.166,2.173c0,1.95,0,3.9-.006,5.851,0,.23.073.288.294.287,1.288-.009,2.575,0,3.863,0M6.367,30.241v-2.9c0-.338-.009-.357-.356-.361-.85-.007-1.7-.006-2.55,0a1.585,1.585,0,0,0-.44.047,2.069,2.069,0,0,0-1.591,2.082c-.028,1.2-.013,2.4,0,3.6a.7.7,0,0,0,.783.759c1.295,0,2.589,0,3.884.005.22,0,.28-.074.278-.283-.008-.982,0-1.965,0-2.947m11.246.009c0,.975.005,1.949,0,2.924,0,.217.055.3.287.3,1.295-.01,2.589,0,3.884-.006a.687.687,0,0,0,.772-.744c-.007-1.324.059-2.65-.037-3.973a2.038,2.038,0,0,0-1.8-1.76c-.935-.04-1.871-.018-2.807-.011-.235,0-.307.1-.3.326.01.982,0,1.964,0,2.947" transform="translate(0 -14.987)" fill="#323232"/>
      <path id="Path_86511" data-name="Path 86511" d="M25.548,0a5.5,5.5,0,0,1,1.366.292,4.177,4.177,0,0,1,1.615,6.691A3.97,3.97,0,0,1,24.28,8.226,4,4,0,0,1,21.3,5,4.19,4.19,0,0,1,24.874.041,1.46,1.46,0,0,0,25.267,0ZM25.4,6.927a2.73,2.73,0,1,0-2.731-2.74A2.713,2.713,0,0,0,25.4,6.927" transform="translate(-13.418 0)" fill="#323232"/>
      <path id="Path_86512" data-name="Path 86512" d="M7.341,16.851A3.147,3.147,0,1,1,10.479,13.7a3.16,3.16,0,0,1-3.137,3.147m-.014-1.469a1.651,1.651,0,0,0,1.681-1.67,1.678,1.678,0,1,0-1.681,1.67" transform="translate(-2.645 -6.678)" fill="#323232"/>
      <path id="Path_86513" data-name="Path 86513" d="M47.091,16.851a3.147,3.147,0,1,1,3.157-3.131,3.154,3.154,0,0,1-3.157,3.131m-.01-1.469a1.655,1.655,0,0,0,1.7-1.658,1.678,1.678,0,1,0-3.356-.031,1.651,1.651,0,0,0,1.661,1.689" transform="translate(-27.803 -6.678)" fill="#323232"/>
    </g>
  </g>
</svg>
